<?xml version="1.0" encoding="UTF-8"?>
<svg id="Calque_2" data-name="Calque 2" xmlns="http://www.w3.org/2000/svg" viewBox="0 0 185.01 293">
  <defs>
    <style>
      .cls-1 {
        stroke: #1d1d1b;
      }

      .cls-1, .cls-2 {
        stroke-width: .5px;
      }

      .cls-1, .cls-2, .cls-3, .cls-4 {
        fill: none;
        stroke-miterlimit: 10;
      }

      .cls-5 {
        fill: #3a7684;
      }

      .cls-6 {
        fill: #fcdfce;
      }

      .cls-7 {
        fill: #224859;
      }

      .cls-8 {
        fill: #7db829;
      }

      .cls-9 {
        fill: #0e0e0f;
      }

      .cls-10 {
        fill: #1b3944;
      }

      .cls-11 {
        fill: #1e1e1c;
      }

      .cls-12 {
        fill: #28536b;
      }

      .cls-2, .cls-3, .cls-4 {
        stroke: #1e1e1c;
      }

      .cls-13 {
        fill: #5c7a45;
      }

      .cls-14 {
        fill: #262927;
      }

      .cls-15 {
        fill: #f08806;
      }

      .cls-4 {
        stroke-width: 1px;
      }
    </style>
  </defs>
  <g id="Calque_2-2" data-name="Calque 2">
    <g id="Calque_1-2" data-name="Calque 1-2">
      <g>
        <g>
          <path class="cls-5" d="m115.94,113.58c.11.24.17.5.17.78,0,.84-.52,1.56-1.26,1.85-.23.09-.47.14-.73.14-.51,0-.97-.19-1.32-.49-.41-.37-.67-.9-.68-1.48.33-.46.74-.85,1.21-1.16.86.2,1.73.31,2.61.36Z"/>
          <path class="cls-5" d="m50.54,168.58c7.23,4.91,1.47,12.05,1.47,12.05h-.03c-.11-4.3-.58-9.05-1.44-12.05Z"/>
          <path class="cls-5" d="m112.75,137.86l-.59,3.21c-5.71,0-10.39-1.35-14-3h-.01c-3.32-1.54-5.71-3.33-7.14-4.56-1.03-.89-1.56-1.48-1.56-1.48-.03-.79-.02-1.25-.02-1.25l23.32,7.08Z"/>
          <path class="cls-12" d="m184.26,253.4s.33.67.23,1.93h-.01l-8.96,7.45c-8.96,7.45-53.46,8.34-53.46,8.34,0,0-65.66.51-90.09-2.17-24.42-2.67-31.12-18.61-31.12-18.61,0,0-.41-.77,5.49-3.16,5.9-2.38,19.58,5.42,25.82,7.64,6.26,2.23,18.38,3.5,18.38,3.5,4.72,1.19,24.2,1.49,43.65,1.48l-.06.95-.14,2.44s3.62.85,10.11,2.02c6.5,1.17,18.87-2.61,21.27-3.1.96-.19,1.94-1.15,2.52-2.59,6.63-.1,10.87-.18,10.87-.18,0,0,19.39-.85,32.74-6.45s12.76.51,12.76.51Z"/>
          <path class="cls-7" d="m44.18,273.88c-2.84-.24-5.6-.5-8.29-.79C-5.52,268.6.85,250.34.85,250.34c0,0,6.7,15.94,31.12,18.61,24.43,2.68,90.09,2.17,90.09,2.17,0,0,44.5-.89,53.46-8.34l8.96-7.45h.01c-.18,2.13-1.59,5.93-7.88,10.98-6.4,5.14-20.12,7.17-29.25,7.97-1.15.1-3.29.22-5.52.34-3.57.17-7.3.33-7.3.33-.68.02-1.43.05-2.27.08-.67.02-1.4.05-2.18.07-2.16.07-4.68.14-7.5.21-1.88.05-3.9.09-6.03.13-12.75.26-29.66.37-46.67-.17-1.79-.05-4.44-.17-7.01-.28l-.66-.03c-3.85-.17-7.37-.34-7.37-.34-.73-.04-1.46-.09-2.18-.13-2.87-.18-5.71-.38-8.49-.61Z"/>
          <path class="cls-5" d="m168.85,115.21s3.56,1.38-.67,7.61c-.63.93-1.18,1.59-1.64,2.03-2.7,2.47-3.01-2.07-3.01-2.07-3.53.46-3.13-2.96-3.13-2.96-4.17,1.25-3.25-4.14-3.25-4.14-.18,2.06-3.57,1.95-3.57,1.95.56-1.67.2-4.46.2-4.46-.18-1.85-.57-3.12-1.08-3.98,4.43-11.16,6.11.89,6.11.89,2.81-6.03,6.19.1,6.19.1,5.19-.95,3.85,5.03,3.85,5.03Z"/>
          <path class="cls-5" d="m153.58,117.63s3.39.11,3.57-1.95c0,0-.92,5.39,3.25,4.14,0,0-.4,3.42,3.13,2.96,0,0,.31,4.54,3.01,2.07-1.13,5.2-5.85,6.29-5.85,6.29,0,0-6.29,1.81-11.7-2.78,0,0-4.48-3.23-4.56-6.82-.08-3.58,1.65-5.7,1.65-5.7,0,0,2.29-2.41,2.01-4.77-.27-2.36-.44-3.55.48-3.6.68-.04,2.78-.62,4.13,1.72.51.86.9,2.13,1.08,3.98,0,0,.36,2.79-.2,4.46Z"/>
          <path class="cls-5" d="m160.69,131.14c.26,3.64-4.27,3.92-4.27,3.92,0,0-4.79.69-6.28-1.14,0,0-1.49-2.32-1.15-5.56,5.41,4.59,11.7,2.78,11.7,2.78Z"/>
          <path class="cls-7" d="m156.42,135.06s-2.5,13.45-3.37,18.38c-.87,4.92-4.25,4.31-4.25,4.31l-23.34-2.46,1.62-8.6,18.22,1.61,4.84-14.38c1.49,1.83,6.28,1.14,6.28,1.14Z"/>
          <path class="cls-12" d="m147.36,274.28c.26.65.42,1.36.42,2.09,0,3.35-3,6.08-6.72,6.08-2.73,0-5.08-1.47-6.12-3.58l6.9-4.25c2.23-.12,4.37-.24,5.52-.34Z"/>
          <path class="cls-7" d="m141.84,274.62l-6.9,4.25-10.93,4.97c-.23-1.51-.93-2.88-1.94-3.95l.52-4.58c2.82-.07,5.34-.14,7.5-.21v.45s.01,1.93.01,1.93c2.56-.31,2.21-2.26,2.17-2.45.84-.03,1.59-.06,2.27-.08,0,0,3.73-.16,7.3-.33Z"/>
          <path class="cls-14" d="m132.27,275.03c.04.19.39,2.14-2.17,2.45v-2.38c.77-.02,1.5-.05,2.17-.07Z"/>
          <path class="cls-5" d="m131.54,35.39c1.7,6.62,1.7,8.9-1.11,17.39-2.56,7.78-16.5,26.35-18.83,29.43-1.52-.4-3-.72-4.32-.96.49-1.33,1.79-4.97,3.11-9.22,1.42-1.84,12.02-15.84,9.7-20.94-2.48-5.47-6.12-5.79-5.73-8.46.38-2.66,3.51-5.07,3.51-5.07,0,0,3.59-1.56.27-5.07-3.33-3.51-6.91-5.8-5.99-8.85.81-2.72,6.74-6.32,8.02-7.07.66.34,1.38.74,2.19,1.21,3.09,1.78,7.48,10.99,9.18,17.61Z"/>
          <path class="cls-7" d="m131.2,106.53c.88,2.8-2.57,4.39-2.57,4.39l-.12.06c-.13-1.86-.31-3.84-.54-5.82,1.04-.32,2.66-.46,3.23,1.37Z"/>
          <path class="cls-7" d="m128.94,119.2c.05,1.81.06,2.91.06,2.91,0,0-.03.6-.11,1.71h-.02c0-.79-3.75-1.94-9.02-3.18.76-.86,1.24-1.98,1.26-3.22,4.37.9,7.38,1.67,7.83,1.78Z"/>
          <path class="cls-12" d="m128.87,123.82h.02c-.39,5.64-2.04,24.46-7.5,43.55-3.82-.89-24.77-5.58-36.34-5.13-2-12.84-4.06-28.7-5.24-42.13-1.9-21.47,5.57-36.72,7.12-39.61h12.62c.22.27.34.42.34.42l6.47.47c.02-.1.04-.2.05-.29.28.05.57.1.87.15-.13.36-.2.55-.2.55l4.18.85s.12-.15.34-.44c4.62,1.21,9.65,3.21,12.08,6.48,1.05,1.4,1.88,3.61,2.56,6.27-3.33-.87-15.04-3.74-19.08-2.66,0,0,15.02,2.67,19.82,6.07.41,2.17.73,4.49.99,6.79-.55.17-.94.38-.94.38-9.8,3.92-15.69.83-15.69.83-2.53-.99-7.8,2.81-.35,6.09.53.24,1.08.43,1.64.58-.32.35-.51.81-.51,1.32v.02c-.29.37-.53.79-.69,1.25-3.61-.58-7.49-1.09-11.32-1.41.02-.12.02-.24.02-.36,0-2.46-2.01-4.47-4.5-4.47s-4.49,2.01-4.49,4.47v.04c-1.8.03-3.53.14-5.14.35,0,0,2.08.34,5.32.88.56,1.85,2.27,3.2,4.31,3.2,1.49,0,2.8-.71,3.61-1.82,3.82.69,8.05,1.48,12.1,2.29.63,2.03,2.53,3.51,4.77,3.51,1.49,0,2.82-.65,3.74-1.67,5.27,1.24,9.02,2.39,9.02,3.18Zm-10.62,15.71l-5.5-1.67-23.32-7.08s-.01.46.02,1.25c.13,4.03,1.16,16.53,8.7,18.28,5.46,1.28,9.24,1.66,11.37,1.76,1.4.07,2.1.02,2.1.02,0,0,1.32-5.2,3.68-9.13h.01c.84-1.4,1.83-2.64,2.94-3.43Zm-14.15-38.69c1.61-1.14,1.39-3.97.39-4.78-1.01-.81-7.02-1.63-7.02-1.63-8.77-1.01-11.51,1.18-14.09,2.24-2.59,1.04-1.47,4.51-1.47,4.51,0,0,.83,2.33,6.27-.28,5.43-2.62,12.6.13,12.6.13,0,0,1.71.93,3.32-.19Z"/>
          <path class="cls-12" d="m128.51,110.98c.24,3.26.37,6.19.43,8.22-.45-.11-3.46-.88-7.83-1.78v-.08c0-1.55-.72-2.95-1.85-3.86,4.57-.47,8.52-2.17,9.25-2.5Z"/>
          <path class="cls-7" d="m127.97,105.16c.23,1.98.41,3.96.54,5.82-.73.33-4.68,2.03-9.25,2.5-.86-.69-1.95-1.11-3.15-1.11-.42,0-.83.05-1.22.16-.24-.1-.5-.16-.77-.16-.59,0-1.13.26-1.49.67-.56-.15-1.11-.34-1.64-.58-7.45-3.28-2.18-7.08.35-6.09,0,0,5.89,3.09,15.69-.83,0,0,.39-.21.94-.38Z"/>
          <path class="cls-5" d="m126.54,250.86c2.19,3.07,2.28,6.16,1.49,8.33-.32.12-.63.24-.94.34-8.54.12-20.72.26-32.9.27l.85-14.79s-.01-2.55,1.8-2.47c1.13.04,2.5,1.22,3.37,2.11-1.23,1.99-2.06,3.26-2.06,3.26l4.53,2.82c1.65-2.64,3.14-5.18,4.48-7.6.72-.52,1.2-.17,1.2-.17,0,0,3.19,2.23.65,5.69-2.53,3.45,5.63.41,5.63.41,0,0,8.1-3.55,11.9,1.8Z"/>
          <path class="cls-6" d="m128.03,259.19c-.04.11-.08.22-.14.33-.26,0-.53,0-.8,0,.31-.1.62-.22.94-.34Z"/>
          <path class="cls-7" d="m127.09,259.53c.27,0,.54,0,.8,0-.58,1.44-1.56,2.4-2.52,2.59-2.4.49-14.77,4.27-21.27,3.1-6.49-1.17-10.11-2.02-10.11-2.02l.14-2.44s15.46,5.08,32.96-1.22Z"/>
          <path class="cls-7" d="m126.24,94.96c.27,1.07.52,2.21.74,3.41-4.8-3.4-19.82-6.07-19.82-6.07,4.04-1.08,15.75,1.79,19.08,2.66Z"/>
          <path class="cls-12" d="m122.07,279.89c1.01,1.07,1.71,2.44,1.94,3.95.07.38.1.78.1,1.18,0,4.13-3.35,7.48-7.5,7.48s-7.49-3.35-7.49-7.48,3.36-7.48,7.49-7.48c2.16,0,4.1.91,5.46,2.35Zm-5.46,6.63c.83,0,1.5-.67,1.5-1.5s-.67-1.5-1.5-1.5-1.5.67-1.5,1.5.68,1.5,1.5,1.5Z"/>
          <path class="cls-10" d="m121.11,117.34v.08c-1.87-.39-3.98-.81-6.26-1.21.74-.29,1.26-1.01,1.26-1.85,0-.28-.06-.54-.17-.78,1.12.06,2.24.02,3.32-.1,1.13.91,1.85,2.31,1.85,3.86Z"/>
          <path class="cls-7" d="m121.39,167.37c-.49,1.73-1.02,3.47-1.58,5.2-3.16-2.88-23.77-6.47-34.43-8.18-.11-.71-.22-1.43-.33-2.15,11.57-.45,32.52,4.24,36.34,5.13Z"/>
          <path class="cls-7" d="m120.09,51.09c2.32,5.1-8.28,19.1-9.7,20.94,2.04-6.53,4.13-14.5,3.47-17.8-1.24-6.03-4.35-7.55-4.35-7.55l-.14-1.88c-.07-1.6-.18-3.14-.33-4.61h2.43c-1.21,0-2.44-1.97-2.7-2.39-.34-2.75-.8-5.27-1.35-7.58-.04-.15-.07-.3-.11-.44-.18-.83-.37-1.56-.55-2.07-.01-.02-.02-.04-.02-.06-.08-.27-.15-.53-.23-.78.6,0,3.94,2.28,3.94,2.28,0,0-3.19-5.9-.94-9.08,2.24-3.19,4.35-4.21,6.13-4.59,1.32-.28,2.66.13,4.53,1.09-1.28.75-7.21,4.35-8.02,7.07-.92,3.05,2.66,5.34,5.99,8.85,3.32,3.51-.27,5.07-.27,5.07,0,0-3.13,2.41-3.51,5.07-.39,2.67,3.25,2.99,5.73,8.46Z"/>
          <path class="cls-10" d="m121.11,117.42c-.02,1.24-.5,2.36-1.26,3.22-2.56-.61-5.48-1.22-8.51-1.84-.14-.47-.22-.95-.22-1.46,0-.6.11-1.17.31-1.71.46.08.92.15,1.37.23.35.3.81.49,1.32.49.26,0,.5-.05.73-.14,2.28.4,4.39.82,6.26,1.21Z"/>
          <path class="cls-7" d="m112.75,137.86l5.5,1.67c-1.11.79-2.1,2.03-2.94,3.43h-.01c-4.36.3-8.14,3.04-8.14,3.04-.98-1.66-1.89-2.95-1.89-2.95-3.11,0-6.88-4.68-7.11-4.98,3.61,1.65,8.29,3,14,3l.59-3.21Z"/>
          <circle class="cls-11" cx="116.61" cy="285.02" r="1.5"/>
          <path class="cls-7" d="m119.26,113.48c-1.08.12-2.2.16-3.32.1-.19-.47-.57-.85-1.05-1.05.39-.11.8-.16,1.22-.16,1.2,0,2.29.42,3.15,1.11Z"/>
          <path class="cls-10" d="m119.85,120.64c-.92,1.02-2.25,1.67-3.74,1.67-2.24,0-4.14-1.48-4.77-3.51,3.03.62,5.95,1.23,8.51,1.84Z"/>
          <path class="cls-7" d="m112.02,191.89c-.1,2.78,5.15,22.58,3.91,29.49-.97,5.43-3.83,12.8-8.77,21.75-.46.32-1.02,1.01-1.61,2.37-1.5,3.47-4.45.12-4.45.12,0,0-.35-.43-.89-.97,3.68-5.9,10.93-18.15,10.83-22.6-.09-4.18-1.83-17.05-2.85-24.35,1.16-1.86,2.34-3.84,3.52-5.98.1-.18.19-.35.28-.53.03.2.04.44.03.7Z"/>
          <path class="cls-7" d="m114.89,112.53c.48.2.86.58,1.05,1.05-.88-.05-1.75-.16-2.61-.36.47-.32,1-.55,1.56-.69Z"/>
          <path class="cls-7" d="m114.12,112.37c.27,0,.53.06.77.16-.56.14-1.09.37-1.56.69-.23-.05-.47-.1-.7-.18.36-.41.9-.67,1.49-.67Z"/>
          <path class="cls-15" d="m112.63,113.04c.23.08.47.13.7.18-.47.31-.88.7-1.21,1.16v-.02c0-.51.19-.97.51-1.32Z"/>
          <path class="cls-12" d="m119.81,172.57c-2.11,6.47-4.68,12.85-7.82,18.62-.2-1.98-1.65-1.57-1.65-1.57,0,0-.5,0-1.81.22-1.3.23-1.09,2.66-1.09,2.66,0,0,.31,2.1.75,5.2-2.38,3.78-4.7,7-6.92,9.74-7.33-3.42-9.86-14.78-12.14-23.23-.94-3.48-2.31-10.77-3.75-19.82,10.66,1.71,31.27,5.3,34.43,8.18Z"/>
          <path class="cls-10" d="m115.3,142.96c-2.36,3.93-3.68,9.13-3.68,9.13,0,0-.7.05-2.1-.02.13-.9-.41-2.36-1.15-3.85-.37-.76-.8-1.52-1.21-2.22,0,0,3.78-2.74,8.14-3.04Z"/>
          <path class="cls-9" d="m112.8,115.86c-.45-.08-.91-.15-1.37-.23.16-.46.4-.88.69-1.25.01.58.27,1.11.68,1.48Z"/>
          <path class="cls-12" d="m111.99,191.19c-.09.18-.18.35-.28.53-1.18,2.14-2.36,4.12-3.52,5.98-.44-3.1-.75-5.2-.75-5.2,0,0-.21-2.43,1.09-2.66,1.31-.22,1.81-.22,1.81-.22,0,0,1.45-.41,1.65,1.57Z"/>
          <path class="cls-8" d="m107.28,81.25c1.32.24,2.8.56,4.32.96-.22.29-.34.44-.34.44l-4.18-.85s.07-.19.2-.55Z"/>
          <path class="cls-7" d="m111.43,115.63c-.2.54-.31,1.11-.31,1.71,0,.51.08.99.22,1.46-4.05-.81-8.28-1.6-12.1-2.29.5-.64.81-1.43.87-2.29,3.83.32,7.71.83,11.32,1.41Z"/>
          <path class="cls-5" d="m127.09,259.53c-17.5,6.3-32.96,1.22-32.96,1.22l.06-.95c12.18-.01,24.36-.15,32.9-.27Z"/>
          <path class="cls-7" d="m108.37,148.22c.74,1.49,1.28,2.95,1.15,3.85-2.13-.1-5.91-.48-11.37-1.76-7.54-1.75-8.57-14.25-8.7-18.28,0,0,.53.59,1.56,1.48.12,1.71,1.48,13.87,16.99,14.75l.37-.04Z"/>
          <path class="cls-5" d="m101.34,71.52c-.13-.65-1.04-5.12-2.41-10.48,0,0,2.07-12.59-.78-17.56-2.85-4.98-6.07-7.61-6.07-7.61,0,0-5.19-2.35-5.28-5.27-.1-2.93,2.34-3.61,0-5.07-2.35-1.47-4.49-1.34-3.66-3,.85-1.65.8-2.6-.18-4.1-.98-1.49-5.02-3.89-5.02-3.89,0,0-10.64-5.48,2.42-13.83,1.81.33,3.81,1.09,6.11,2.35,4.84,2.64,14.98,7.19,20.03,23.81-.1,0-.11.08,0,.25.08.12.15.3.24.53,0,.02.01.04.02.06.19.67.37,1.36.55,2.07.04.14.07.29.11.44.67,3.17,1.31,7.5,1.31,7.5,0,0,.02.03.04.08.1.78.19,1.57.27,2.39h-.02l.35,4.61c.47,9.6-.31,21.5-2.96,36.3-2.66-.45-4.52-.6-4.52-.6h-2.34c-.83-1.02-3.12-3.78-6.09-6.86h.01s-.96-7.08-6.72-12.6c-5.75-5.53-12.9-6.18-12.9-6.18,0,0-2.65,1.63-4.95,1.42-.95-.08-1.84-.48-2.46-1.42-2.12-3.26,5.12-8.19,0-9.37-5.11-1.17-13.65-7.17-13.65-7.17,3.91-2.1,8.95-1.94,8.95-1.94,0,0,14.66.71,21.16,5.68,6.49,4.95,16.06,21.57,18.44,29.46Z"/>
          <path class="cls-13" d="m109.37,44.8l-.35-4.61h.02c.15,1.47.26,3.01.33,4.61Z"/>
          <path class="cls-13" d="m108.77,37.8s-.04-.08-.04-.08c0,0-.64-4.33-1.31-7.5.55,2.31,1.01,4.83,1.35,7.58Z"/>
          <path class="cls-12" d="m108.37,148.22l-.37.04c-15.51-.88-16.87-13.04-16.99-14.75,1.43,1.23,3.82,3.02,7.14,4.55h.01c.23.31,4,4.99,7.11,4.99,0,0,.91,1.29,1.89,2.95.41.7.84,1.46,1.21,2.22Z"/>
          <path class="cls-13" d="m106.74,27.65c-.09-.23-.16-.41-.24-.53-.11-.17-.1-.25,0-.25h.01c.08.25.15.51.23.78Z"/>
          <path class="cls-8" d="m106.41,81.1c-.01.09-.03.19-.05.29l-6.47-.47s-.12-.15-.34-.42h2.34s1.86.15,4.52.6Z"/>
          <path class="cls-5" d="m105.55,245.5c.59-1.36,1.15-2.05,1.61-2.37-1.34,2.42-2.83,4.96-4.48,7.6l-4.53-2.82s.83-1.27,2.06-3.26c.54.54.89.97.89.97,0,0,2.95,3.35,4.45-.12Z"/>
          <path class="cls-7" d="m104.49,96.06c1,.81,1.22,3.64-.39,4.78-1.61,1.12-3.32.19-3.32.19,0,0-7.17-2.75-12.6-.13-5.44,2.61-6.27.28-6.27.28,0,0-1.12-3.47,1.47-4.51,2.58-1.06,5.32-3.25,14.09-2.24,0,0,6.01.82,7.02,1.63Z"/>
          <path class="cls-10" d="m100.13,113.86c0,.12,0,.24-.02.36-1.59-.13-3.18-.23-4.73-.29.46-.37.75-.92.75-1.56,0-1.09-.89-1.99-2-1.99s-1.99.9-1.99,1.99c0,.61.27,1.14.7,1.51-.58,0-1.14,0-1.7.02v-.04c0-2.46,2.02-4.47,4.49-4.47s4.5,2.01,4.5,4.47Z"/>
          <path class="cls-10" d="m100.11,114.22c-.06.86-.37,1.65-.87,2.29-2.99-.53-5.73-1-7.92-1.38-.11-.39-.18-.8-.18-1.23.56-.02,1.12-.03,1.7-.02.35.3.79.48,1.29.48.47,0,.9-.16,1.25-.43,1.55.06,3.14.16,4.73.29Z"/>
          <path class="cls-7" d="m98.15,43.48c2.85,4.97.78,17.56.78,17.56-2.12-8.37-5.35-18.92-8.41-20.59,0,0-2.56-1.7-5.41-1.7s-4.5-4.84-4.5-4.84c0,0-.85-3.18,1.36-3.22,0,0-11.52-4.38-10.97-7.56.56-3.18.17-3.56,3.86-2.76,0,0-10.28-10.94-5.64-15.44,3.32-3.23,6.56-5.08,11.14-4.22-13.06,8.35-2.42,13.83-2.42,13.83,0,0,4.04,2.4,5.02,3.89.98,1.5,1.03,2.45.18,4.1-.83,1.66,1.31,1.53,3.66,3,2.34,1.46-.1,2.14,0,5.07.09,2.92,5.28,5.27,5.28,5.27,0,0,3.22,2.63,6.07,7.61Z"/>
          <path class="cls-10" d="m99.24,116.51c-.81,1.11-2.12,1.82-3.61,1.82-2.04,0-3.75-1.35-4.31-3.2,2.19.38,4.93.85,7.92,1.38Z"/>
          <path class="cls-5" d="m96.13,112.37c0,.64-.29,1.19-.75,1.56-.86-.03-1.71-.05-2.54-.05-.43-.37-.7-.9-.7-1.51,0-1.09.9-1.99,1.99-1.99s2,.9,2,1.99Z"/>
          <path class="cls-9" d="m95.38,113.93c-.35.27-.78.43-1.25.43-.5,0-.94-.18-1.29-.48.83,0,1.68.02,2.54.05Z"/>
          <path class="cls-7" d="m89.13,184.21c2.28,8.45,4.81,19.81,12.14,23.23-10.7,13.23-18.95,15.17-18.95,15.17,0,0-5.49,3.28-7.37-9.36,4.21-8.31,8.03-17.32,9.3-18.92,2.13-2.71,0-3.51,0-3.51,0,0-.5-.37-1.96-1.1s-3.06,1.85-3.06,1.85c0,0-2.33,4.37-5.37,9.95-.89-10.61-1.3-16.05-1.3-16.05,0,0-2.49-24.62-4.05-40.34,1.38.24,2.11.39,2.11.39,0,0,6.48,1.82,7.23-2.96.74-4.8-2.56-5.36-2.56-5.36l-7.66-.93c-.17-1.75-.28-3-.33-3.57-.38-4.54-1.77-20.11-1.14-36.06.64-15.95,16.48-16.14,16.48-16.14h4.29c-1.55,2.89-9.02,18.14-7.12,39.61,1.18,13.43,3.24,29.29,5.24,42.13-2.58.1-4.7.46-6.05,1.17,0,0,2.55.37,6.38.98,1.44,9.05,2.81,16.34,3.75,19.82Z"/>
          <path class="cls-7" d="m93.47,73.64h-.01c-5.67-5.89-13.84-12.99-19.06-11.46-8.67,2.54-5.61-3.91-5.61-3.91l.11-1.99c2.3.21,4.95-1.42,4.95-1.42,0,0,7.15.65,12.9,6.18,5.76,5.52,6.72,12.6,6.72,12.6Z"/>
          <path class="cls-7" d="m91.14,113.9c0,.43.07.84.18,1.23-3.24-.54-5.32-.88-5.32-.88,1.61-.21,3.34-.32,5.14-.35Z"/>
          <path class="cls-7" d="m85.05,162.24c.11.72.22,1.44.33,2.15-3.83-.61-6.38-.98-6.38-.98,1.35-.71,3.47-1.07,6.05-1.17Z"/>
          <path class="cls-7" d="m84.25,190.82s2.13.8,0,3.51c-1.27,1.6-5.09,10.61-9.3,18.92-.14-.95-.26-1.99-.36-3.12-.27-3.17-.52-6.05-.73-8.61,3.04-5.58,5.37-9.95,5.37-9.95,0,0,1.58-2.59,3.06-1.85s1.96,1.1,1.96,1.1Z"/>
          <path class="cls-7" d="m75.29,137.2s3.3.56,2.56,5.36c-.75,4.78-7.23,2.96-7.23,2.96,0,0-.73-.15-2.11-.39-.36-3.53-.66-6.61-.88-8.86l7.66.93Z"/>
          <path class="cls-7" d="m74.59,210.13c.1,1.13.22,2.17.36,3.12-2.88,5.67-5.95,11.02-8.51,13.45-6.32,5.99-18,12.87-34.91,19.61l-2.44-6.15s27.7-10.34,31.96-16.39c2.51-3.58,8.41-14.18,12.81-22.25.21,2.56.46,5.44.73,8.61Z"/>
          <path class="cls-12" d="m69.89,275.27c.01.15.03.29.03.44,0,3.72-3.4,6.74-7.6,6.74-2.71,0-5.08-1.27-6.43-3.17l6.99-4.29c2.57.11,5.22.23,7.01.28Z"/>
          <path class="cls-7" d="m68.9,56.28l-.11,1.99s-19.64,1.7-10.37-4.41c0,0-11.95-3.74-9.78-10.78.7-2.27,2.3-3.76,4.15-4.76,0,0,8.54,6,13.65,7.17,5.12,1.18-2.12,6.11,0,9.37.62.94,1.51,1.34,2.46,1.42Z"/>
          <path class="cls-7" d="m67.63,136.27c.22,2.25.52,5.33.88,8.86-3.03-.52-9.18-1.46-17.53-2.11l-5.66,16.94-1.1,3.3c-2.37,1.64-5.55-.87-5.55-.87,0,0,.26-1.24.65-3.22.83-4.16,2.26-11.55,3.24-17.38,1.43-8.61,5.83-7.85,5.83-7.85l19.24,2.33Z"/>
          <path class="cls-7" d="m55.89,279.28l-8.92,4.03c-.42-1.85-1.53-3.42-3.03-4.45l.24-.32v-4.66c2.78.23,5.62.43,8.49.61,0,0-.38,3.1,2.22,2.55l7.33-2.08.66.03-6.99,4.29Z"/>
          <path class="cls-14" d="m52.67,274.49c.72.04,1.45.09,2.18.13-.07.35-.11.71-.11,1.09,0,.45.05.89.15,1.33-2.6.55-2.22-2.55-2.22-2.55Z"/>
          <path class="cls-5" d="m51.98,180.63c.07,2.63,0,5.09-.18,6.88-.66,6.36-6.61,2.31-6.61,2.31-3.05,2.16-4.45-.01-4.45-.01-2.96,1.64-5.09-1.51-5.09-1.51,0,0-4.13-.32-5.02-11.08-.88-10.76,4.9-12.85,4.9-12.85.14,3.39,9.48,4.21,9.48,4.21,0,0,4.04.13,3.72-3.02.73.22,1.33,1.35,1.81,3.02.86,3,1.33,7.75,1.44,12.05Z"/>
          <path class="cls-7" d="m48.73,165.56c.32,3.15-3.72,3.02-3.72,3.02,0,0-9.34-.82-9.48-4.21h0c-.11-3.42,1.17-3.88,1.17-3.88.12.91,1.97,1.9,1.97,1.9,0,0,3.18,2.51,5.55.87.86.14,3.92-1.34,3.92-1.34,0,0,.27.48.59,3.64Z"/>
          <path class="cls-12" d="m46.97,283.31c.14.54.21,1.12.21,1.71,0,4.13-3.35,7.48-7.49,7.48s-7.5-3.35-7.5-7.48,3.36-7.48,7.5-7.48c1.57,0,3.04.49,4.25,1.32,1.5,1.03,2.61,2.6,3.03,4.45Zm-8.28,3.21c.82,0,1.5-.67,1.5-1.5s-.68-1.5-1.5-1.5-1.5.67-1.5,1.5.67,1.5,1.5,1.5Z"/>
          <path class="cls-7" d="m45.65,160.07s2.14.7,2.49,1.85c0,0-3.06,1.48-3.92,1.34l1.1-3.3.33.11Z"/>
          <circle class="cls-11" cx="38.69" cy="285.02" r="1.5"/>
          <path class="cls-7" d="m39.32,159.17c-.39,1.98-.65,3.22-.65,3.22,0,0-1.85-.99-1.97-1.9h0c-.07-.57.52-1.09,2.62-1.32Z"/>
        </g>
        <g>
          <path class="cls-3" d="m46.97,283.31c.14.54.21,1.12.21,1.71,0,4.13-3.35,7.48-7.49,7.48s-7.5-3.35-7.5-7.48,3.36-7.48,7.5-7.48c1.57,0,3.04.49,4.25,1.32,1.5,1.03,2.61,2.6,3.03,4.45Z"/>
          <path class="cls-3" d="m124.01,283.84c.07.38.1.78.1,1.18,0,4.13-3.35,7.48-7.5,7.48s-7.49-3.35-7.49-7.48,3.36-7.48,7.49-7.48c2.16,0,4.1.91,5.46,2.35,1.01,1.07,1.71,2.44,1.94,3.95Z"/>
          <path class="cls-3" d="m54.85,274.62s3.52.17,7.37.34l.66.03c2.57.11,5.22.23,7.01.28"/>
          <path class="cls-3" d="m94.19,259.8c-19.45.01-38.93-.29-43.65-1.48,0,0-12.12-1.27-18.38-3.5-6.24-2.22-19.92-10.02-25.82-7.64-5.9,2.39-5.49,3.16-5.49,3.16,0,0-6.37,18.26,35.04,22.75,2.69.29,5.45.55,8.29.79,2.78.23,5.62.43,8.49.61.72.04,1.45.09,2.18.13-.07.35-.11.71-.11,1.09,0,.45.05.89.15,1.33"/>
          <path class="cls-3" d="m134.94,278.87c1.04,2.11,3.39,3.58,6.12,3.58,3.72,0,6.72-2.73,6.72-6.08,0-.73-.16-1.44-.42-2.09,9.13-.8,22.85-2.83,29.25-7.97,6.29-5.05,7.7-8.85,7.88-10.98.1-1.26-.23-1.93-.23-1.93,0,0,.59-6.11-12.76-.51s-32.74,6.45-32.74,6.45c0,0-4.24.08-10.87.18"/>
          <path class="cls-3" d="m55.83,279.19l.06.09c1.35,1.9,3.72,3.17,6.43,3.17,4.2,0,7.6-3.02,7.6-6.74,0-.15-.02-.29-.03-.44,17.01.54,33.92.43,46.67.17,2.13-.04,4.15-.08,6.03-.13,2.82-.07,5.34-.14,7.5-.21.78-.02,1.51-.05,2.18-.07.84-.03,1.59-.06,2.27-.08"/>
          <path class="cls-3" d="m134.54,274.95s3.73-.16,7.3-.33c2.23-.12,4.37-.24,5.52-.34"/>
          <polyline class="cls-3" points="123.6 284.03 124.01 283.84 134.94 278.87 141.84 274.62 141.85 274.61"/>
          <path class="cls-3" d="m132.27,275.02h0c.04.2.39,2.15-2.17,2.46v-1.93"/>
          <polyline class="cls-3" points="122.59 275.31 122.07 279.89 122.06 279.98"/>
          <polyline class="cls-3" points="44.18 273.55 44.18 273.88 44.18 278.54"/>
          <line class="cls-3" x1="54.89" y1="277.04" x2="62.22" y2="274.96"/>
          <path class="cls-3" d="m52.67,274.49s-.38,3.1,2.22,2.55"/>
          <line class="cls-3" x1="55.89" y1="279.28" x2="62.88" y2="274.99"/>
          <polyline class="cls-3" points="46.8 283.38 46.97 283.31 55.89 279.28"/>
          <circle class="cls-3" cx="38.69" cy="285.02" r="1.5"/>
          <circle class="cls-3" cx="116.61" cy="285.02" r="1.5"/>
          <path class="cls-3" d="m.85,250.34s6.7,15.94,31.12,18.61c24.43,2.68,90.09,2.17,90.09,2.17,0,0,44.5-.89,53.46-8.34l8.96-7.45"/>
          <path class="cls-3" d="m100.21,244.65c3.68-5.9,10.93-18.15,10.83-22.6-.09-4.18-1.83-17.05-2.85-24.35"/>
          <path class="cls-3" d="m111.99,191.19c.03.2.04.44.03.7-.1,2.78,5.15,22.58,3.91,29.49-.97,5.43-3.83,12.8-8.77,21.75"/>
          <path class="cls-2" d="m94.13,260.75s15.46,5.08,32.96-1.22c.31-.1.62-.22.94-.34h.01"/>
          <path class="cls-1" d="m128.03,259.19c-.04.11-.08.22-.14.33-.58,1.44-1.56,2.4-2.52,2.59-2.4.49-14.77,4.27-21.27,3.1-6.49-1.17-10.11-2.02-10.11-2.02l.14-2.44.06-.95.85-14.79s-.01-2.55,1.8-2.47c1.13.04,2.5,1.22,3.37,2.11.54.54.89.97.89.97,0,0,2.95,3.35,4.45-.12.59-1.36,1.15-2.05,1.61-2.37.72-.52,1.2-.17,1.2-.17,0,0,3.19,2.23.65,5.69-2.53,3.45,5.63.41,5.63.41,0,0,8.1-3.55,11.9,1.8,2.19,3.07,2.28,6.16,1.49,8.33Z"/>
          <path class="cls-4" d="m128.51,110.98c.24,3.26.37,6.19.43,8.22.05,1.81.06,2.91.06,2.91,0,0-.03.6-.11,1.71-.39,5.64-2.04,24.46-7.5,43.55-.49,1.73-1.02,3.47-1.58,5.2-2.11,6.47-4.68,12.85-7.82,18.62-.09.18-.18.35-.28.53-1.18,2.14-2.36,4.12-3.52,5.98-2.38,3.78-4.7,7-6.92,9.74-10.7,13.23-18.95,15.17-18.95,15.17,0,0-5.49,3.28-7.37-9.36"/>
          <path class="cls-4" d="m111.6,82.21c4.62,1.21,9.65,3.21,12.08,6.48,1.05,1.4,1.88,3.61,2.56,6.27.27,1.07.52,2.21.74,3.41.41,2.17.73,4.49.99,6.79"/>
          <path class="cls-4" d="m106.41,81.1c.28.05.57.1.87.15"/>
          <path class="cls-4" d="m67.63,136.27c-.17-1.75-.28-3-.33-3.57-.38-4.54-1.77-20.11-1.14-36.06.64-15.95,16.48-16.14,16.48-16.14h16.91"/>
          <path class="cls-4" d="m73.86,201.52c-.89-10.61-1.3-16.05-1.3-16.05,0,0-2.49-24.62-4.05-40.34"/>
          <path class="cls-4" d="m115.31,142.96c.84-1.4,1.83-2.64,2.94-3.43l-5.5-1.67-23.32-7.08s-.01.46.02,1.25c.13,4.03,1.16,16.53,8.7,18.28,5.46,1.28,9.24,1.66,11.37,1.76,1.4.07,2.1.02,2.1.02,0,0,1.32-5.2,3.68-9.13"/>
          <path class="cls-4" d="m91.14,113.9v-.04c0-2.46,2.02-4.47,4.49-4.47s4.5,2.01,4.5,4.47c0,.12,0,.24-.02.36-.06.86-.37,1.65-.87,2.29-.81,1.11-2.12,1.82-3.61,1.82-2.04,0-3.75-1.35-4.31-3.2-.11-.39-.18-.8-.18-1.23Z"/>
          <path class="cls-4" d="m119.26,113.48c1.13.91,1.85,2.31,1.85,3.86v.08c-.02,1.24-.5,2.36-1.26,3.22-.92,1.02-2.25,1.67-3.74,1.67-2.24,0-4.14-1.48-4.77-3.51-.14-.47-.22-.95-.22-1.46,0-.6.11-1.17.31-1.71.16-.46.4-.88.69-1.25"/>
          <path class="cls-4" d="m92.84,113.88c-.43-.37-.7-.9-.7-1.51,0-1.09.9-1.99,1.99-1.99s2,.9,2,1.99c0,.64-.29,1.19-.75,1.56-.35.27-.78.43-1.25.43-.5,0-.94-.18-1.29-.48Z"/>
          <path class="cls-4" d="m115.94,113.58c.11.24.17.5.17.78,0,.84-.52,1.56-1.26,1.85-.23.09-.47.14-.73.14-.51,0-.97-.19-1.32-.49-.41-.37-.67-.9-.68-1.48v-.02c0-.51.19-.97.51-1.32"/>
          <path class="cls-4" d="m89.45,132.03s.53.59,1.56,1.48c1.43,1.23,3.82,3.02,7.14,4.55h.01c3.61,1.66,8.29,3.01,14,3.01l.59-3.21"/>
          <path class="cls-3" d="m104.49,96.06c1,.81,1.22,3.64-.39,4.78-1.61,1.12-3.32.19-3.32.19,0,0-7.17-2.75-12.6-.13-5.44,2.61-6.27.28-6.27.28,0,0-1.12-3.47,1.47-4.51,2.58-1.06,5.32-3.25,14.09-2.24,0,0,6.01.82,7.02,1.63Z"/>
          <path class="cls-3" d="m112.63,113.04c-.56-.15-1.11-.34-1.64-.58-7.45-3.28-2.18-7.08.35-6.09,0,0,5.89,3.09,15.69-.83,0,0,.39-.21.94-.38,1.04-.32,2.66-.46,3.23,1.37.88,2.8-2.57,4.39-2.57,4.39l-.12.06c-.73.33-4.68,2.03-9.25,2.5-1.08.12-2.2.16-3.32.1-.88-.05-1.75-.16-2.61-.36-.23-.05-.47-.1-.7-.18Z"/>
          <path class="cls-3" d="m106.5,26.87c-5.05-16.62-15.19-21.17-20.03-23.81-2.3-1.26-4.3-2.02-6.11-2.35-4.58-.86-7.82.99-11.14,4.22-4.64,4.5,5.64,15.44,5.64,15.44-3.69-.8-3.3-.42-3.86,2.76-.55,3.18,10.97,7.56,10.97,7.56-2.21.04-1.36,3.22-1.36,3.22,0,0,1.66,4.84,4.5,4.84s5.41,1.7,5.41,1.7c3.06,1.67,6.29,12.22,8.41,20.59,1.37,5.36,2.28,9.83,2.41,10.48,0,.03.01.05.02.08"/>
          <path class="cls-3" d="m107.31,29.78c-.18-.71-.36-1.4-.55-2.07"/>
          <path class="cls-3" d="m109.04,40.19c-.08-.82-.17-1.61-.27-2.39"/>
          <path class="cls-3" d="m101.34,71.52c-2.38-7.89-11.95-24.51-18.44-29.46-6.5-4.97-21.16-5.68-21.16-5.68,0,0-5.04-.16-8.95,1.94-1.85,1-3.45,2.49-4.15,4.76-2.17,7.04,9.78,10.78,9.78,10.78-9.27,6.11,10.37,4.41,10.37,4.41,0,0-3.06,6.45,5.61,3.91,5.22-1.53,13.39,5.57,19.06,11.46,2.97,3.08,5.26,5.84,6.09,6.86.22.27.34.42.34.42l6.47.47c.02-.1.04-.2.05-.29,2.65-14.8,3.43-26.7,2.96-36.3"/>
          <path class="cls-3" d="m110.39,72.03c2.04-6.53,4.13-14.5,3.47-17.8-1.24-6.03-4.35-7.55-4.35-7.55l-.14-1.88-.35-4.61h2.45c-1.21,0-2.44-1.97-2.7-2.39-.02-.05-.04-.08-.04-.08,0,0-.64-4.33-1.31-7.5-.04-.15-.07-.3-.11-.44-.18-.83-.37-1.56-.55-2.07-.01-.02-.02-.04-.02-.06-.09-.23-.16-.41-.24-.53-.11-.17-.1-.25,0-.25h.01c.6,0,3.94,2.28,3.94,2.28,0,0-3.19-5.9-.94-9.08,2.24-3.19,4.35-4.21,6.13-4.59,1.32-.28,2.66.13,4.53,1.09.66.34,1.38.74,2.19,1.21,3.09,1.78,7.48,10.99,9.18,17.61,1.7,6.62,1.7,8.9-1.11,17.39-2.56,7.78-16.5,26.35-18.83,29.43-.22.29-.34.44-.34.44l-4.18-.85s.07-.19.2-.55c.49-1.33,1.79-4.97,3.11-9.22Z"/>
          <path class="cls-3" d="m44.22,163.26l1.1-3.3,5.66-16.94c8.35.65,14.5,1.59,17.53,2.11,1.38.24,2.11.39,2.11.39,0,0,6.48,1.82,7.23-2.96.74-4.8-2.56-5.36-2.56-5.36l-7.66-.93-19.24-2.33s-4.4-.76-5.83,7.85c-.98,5.83-2.41,13.22-3.24,17.38-.39,1.98-.65,3.22-.65,3.22,0,0,3.18,2.51,5.55.87Z"/>
          <path class="cls-3" d="m45.65,160.07s2.14.7,2.49,1.85c0,0-3.06,1.48-3.92,1.34"/>
          <path class="cls-3" d="m36.7,160.48c-.07-.56.52-1.08,2.62-1.31"/>
          <path class="cls-3" d="m38.67,162.39s-1.85-.99-1.97-1.9"/>
          <path class="cls-3" d="m35.53,164.37c.14,3.39,9.48,4.21,9.48,4.21,0,0,4.04.13,3.72-3.02-.32-3.16-.59-3.64-.59-3.64"/>
          <path class="cls-3" d="m36.7,160.48h0s-1.28.47-1.17,3.88"/>
          <path class="cls-3" d="m35.53,164.36h0s-5.78,2.1-4.9,12.86c.89,10.76,5.02,11.08,5.02,11.08,0,0,2.13,3.15,5.09,1.51,0,0,1.4,2.17,4.45.01,0,0,5.95,4.05,6.61-2.31.19-1.79.25-4.25.18-6.88-.11-4.3-.58-9.05-1.44-12.05-.48-1.67-1.08-2.8-1.81-3.02"/>
          <path class="cls-3" d="m50.54,168.58c7.23,4.91,1.47,12.05,1.47,12.05"/>
          <path class="cls-3" d="m160.69,131.14s-6.29,1.81-11.7-2.78"/>
          <path class="cls-3" d="m156.42,135.06s4.53-.28,4.27-3.92c0,0,4.72-1.09,5.85-6.29"/>
          <path class="cls-3" d="m153.58,117.63s3.39.11,3.57-1.95c0,0-.92,5.39,3.25,4.14,0,0-.4,3.42,3.13,2.96,0,0,.31,4.54,3.01,2.07.46-.44,1.01-1.1,1.64-2.03,4.23-6.23.67-7.61.67-7.61,0,0,1.34-5.98-3.85-5.03,0,0-3.38-6.13-6.19-.1,0,0-1.68-12.05-6.11-.89"/>
          <path class="cls-3" d="m150.14,133.92s-1.49-2.32-1.15-5.56c0,0-4.48-3.23-4.56-6.82-.08-3.58,1.65-5.7,1.65-5.7,0,0,2.29-2.41,2.01-4.77-.27-2.36-.44-3.55.48-3.6.68-.04,2.78-.62,4.13,1.72.51.86.9,2.13,1.08,3.98,0,0,.36,2.79-.2,4.46-.55,1.67,1.47,3.02,1.47,3.02,0,0,.85,1.22.45,4.46"/>
          <path class="cls-3" d="m150.14,133.92l-4.84,14.38-18.22-1.61-1.62,8.6,23.34,2.46s3.38.61,4.25-4.31c.87-4.93,3.37-18.38,3.37-18.38,0,0-4.79.69-6.28-1.14Z"/>
          <path class="cls-3" d="m73.86,201.52c3.04-5.58,5.37-9.95,5.37-9.95,0,0,1.58-2.59,3.06-1.85s1.96,1.1,1.96,1.1c0,0,2.13.8,0,3.51-1.27,1.6-5.09,10.61-9.3,18.92-2.88,5.67-5.95,11.02-8.51,13.45-6.32,5.99-18,12.87-34.91,19.61l-2.44-6.15s27.7-10.34,31.96-16.39c2.51-3.58,8.41-14.18,12.81-22.25Z"/>
        </g>
      </g>
    </g>
    <g>
      <g>
        <path class="cls-5" d="m36.07,239.28s2.45.73,1.84,2.44c-.6,1.71-4.2,3.16-4.2,3.16,0,0-4.07,1.83-1.19,4.29,2.88,2.45,1.6,3.41,1.6,3.41,0,0-3.07,2.39-5.63-1.04-2.57-3.43-2.04,5.25-2.04,5.25,0,0,1.02,8.77-5.23,10.83-3.4,1.12-6.25.44-8.11-.81,2.24-27.5,8.39-32.93,8.39-32.93l14.57,5.4Z"/>
        <path class="cls-7" d="m14.07,242c3.03-5.86,4.9-9.06,4.9-9.06l2.53.94s-6.15,5.43-8.39,32.93c-1.57-1.04-2.43-2.49-2.32-3.61.25-2.44.25-15.35,3.28-21.2Z"/>
      </g>
      <g>
        <path class="cls-2" d="m21.5,233.88s-6.15,5.43-8.39,32.93"/>
        <path class="cls-2" d="m13.11,266.81c-1.57-1.04-2.43-2.49-2.32-3.61.25-2.44.25-15.35,3.28-21.2,3.03-5.86,4.9-9.06,4.9-9.06l2.53.94,14.57,5.4s2.45.73,1.84,2.44c-.6,1.71-4.2,3.16-4.2,3.16,0,0-4.07,1.83-1.19,4.29,2.88,2.45,1.6,3.41,1.6,3.41,0,0-3.07,2.39-5.63-1.04-2.57-3.43-2.04,5.25-2.04,5.25,0,0,1.02,8.77-5.23,10.83-3.4,1.12-6.25.44-8.11-.81Z"/>
      </g>
    </g>
  </g>
</svg>