<?xml version="1.0" encoding="UTF-8"?>
<svg id="Calque_2" data-name="Calque 2" xmlns="http://www.w3.org/2000/svg" viewBox="0 0 185.00712 293.0001233">
  <defs>
    <style>
      .cls-1 {
        stroke: #1d1d1b;
      }

      .cls-1, .cls-2, .cls-3, .cls-4, .cls-5 {
        fill: none;
      }

      .cls-1, .cls-2, .cls-4, .cls-5 {
        stroke-miterlimit: 10;
      }

      .cls-1, .cls-3, .cls-4 {
        stroke-width: .5px;
      }

      .cls-6 {
        fill: #fff;
      }

      .cls-7 {
        fill: #4d4c4c;
      }

      .cls-8 {
        fill: #fcdfce;
      }

      .cls-9 {
        fill: #c07114;
      }

      .cls-10 {
        fill: #d4d7dd;
      }

      .cls-2 {
        stroke-width: .9982563px;
      }

      .cls-2, .cls-3, .cls-4, .cls-5 {
        stroke: #1e1e1c;
      }

      .cls-11 {
        fill: #47b0bf;
      }

      .cls-12 {
        fill: #7db829;
      }

      .cls-13 {
        fill: #ca5443;
      }

      .cls-14 {
        fill: #295960;
      }

      .cls-15 {
        fill: #0e0e0f;
      }

      .cls-16 {
        fill: #222e3a;
      }

      .cls-17 {
        fill: #dbdee4;
      }

      .cls-18 {
        fill: #1e1e1c;
      }

      .cls-3 {
        stroke-linecap: round;
        stroke-linejoin: round;
      }

      .cls-19 {
        fill: #b94e4c;
      }

      .cls-20 {
        fill: #e64416;
      }

      .cls-21 {
        fill: #ab4a38;
      }

      .cls-22 {
        fill: #d87d1b;
      }

      .cls-23 {
        fill: #5c7a45;
      }

      .cls-24 {
        fill: #262927;
      }

      .cls-25 {
        fill: #c95453;
      }

      .cls-26 {
        fill: #abadb1;
      }

      .cls-27 {
        fill: #f08806;
      }
    </style>
  </defs>
  <g id="Calque_1-2" data-name="Calque 1">
    <g>
      <g>
        <path class="cls-11" d="m171.5006349,252.8877859c13.3472894-5.5947939,12.7578507.5086176,12.7578507.5086176,0,0,.329686.6781568.2297812,1.9347416h-.0099905l-8.961466,7.4497523c-8.961466,7.4497523-53.459091,8.3373399-53.459091,8.3373399,0,0-65.6574744.5086176-90.0842129-2.1641181-24.4267384-2.6727358-31.1203641-18.6094214-31.1203641-18.6094214,0,0-.4096099-.7778858,5.4847769-3.1614076,5.9043773-2.3835218,19.5813527,5.4152818,25.8254065,7.6392373,6.2540443,2.2239555,18.3725039,3.500486,18.3725039,3.500486,10.1403434,2.5430881,88.2259825,1.0172353,88.2259825,1.0172353,0,0,19.3915335-.847696,32.7388228-6.4524628Z"/>
        <path class="cls-7" d="m147.3636206,274.2796448c.2597526.6482382.4196004,1.3563137.4196004,2.0943079,0,3.3508926-3.0071363,6.0734928-6.7235971,6.0734928-2.7274027,0-5.0751669-1.4660155-6.124168-3.5802692l6.9034259-4.2484531c2.2278784-.1196747,4.3758329-.2393495,5.5247388-.3390784Z"/>
        <path class="cls-24" d="m141.8388818,274.6187233l-6.9034259,4.2484531-10.9295918,4.9764744c-.2297812-1.51588-.9291152-2.8821665-1.9381543-3.9492663l.5195053-4.5875315c2.8273076-.0698103,5.34491-.1396205,7.502855-.2094308l.0099905.4487803v1.9347416c2.5575644-.3091597,2.2078974-2.2638471,2.1679355-2.4533321.8392008-.0299187,1.5884873-.0598374,2.2678403-.0797832,0,0,3.7364418-.1595663,7.3030453-.3291055Z"/>
        <path class="cls-24" d="m132.2679961,275.0276119c.0399619.189485.389629,2.1441723-2.1679355,2.4533321v-1.9347416l-.0099905-.4487803c.7792579-.0199458,1.5085634-.0498645,2.177926-.0698103Z"/>
        <path class="cls-7" d="m124.0058641,283.8436508c.0699334.37897.0999049.7778858.0999049,1.1768016,0,4.1287784-3.3468128,7.479671-7.4928646,7.479671-4.1360612,0-7.4928646-3.3508926-7.4928646-7.479671,0-4.1387513,3.3568033-7.479671,7.4928646-7.479671,2.157945,0,4.0960993.9075334,5.4548054,2.3536031,1.0090391,1.0670997,1.7083731,2.4333863,1.9381543,3.9492663Zm-5.8943868,1.1768016c0-.8277503-.6693626-1.4959342-1.4985729-1.4959342-.8192199,0-1.4985729.6681839-1.4985729,1.4959342,0,.8177774.6793531,1.4959342,1.4985729,1.4959342.8292103,0,1.4985729-.6781568,1.4985729-1.4959342Z"/>
        <circle class="cls-18" cx="116.6129045" cy="285.0204523" r="1.4985729"/>
        <path class="cls-7" d="m69.9173726,275.7057688c0,3.7198897-3.3967653,6.7416768-7.5927694,6.7416768-2.7174122,0-5.0851574-1.2665576-6.433873-3.1713805l6.9933402-4.2883447c2.5675549.1097018,5.2150337.2293766,7.0033307.279241.0099905.1495934.0299715.2892139.0299715.4388074Z"/>
        <path class="cls-24" d="m62.2246983,274.9578017l.6593721.0299187-6.9933402,4.2883447-8.9215041,4.0290494c-.4196004-1.8449855-1.5285444-3.41073-3.0271173-4.447911l.2397717-.3191326v-4.6573418c2.7773551.2293766,5.6146532.4288345,8.4919132.6083466,0,0-.3796385,3.1015702,2.2178879,2.553061l7.3330168-2.084335Z"/>
        <path class="cls-24" d="m54.8517196,274.6187233c-.0699334.3490513-.1098953.7080755-.1098953,1.0870455,0,.4587532.0499524.8975605.1498573,1.3363679-2.5975264.5485092-2.2178879-2.553061-2.2178879-2.553061.719315.0398916,1.4486205.0897561,2.177926.1296476Z"/>
        <path class="cls-7" d="m46.9692261,283.3051145c.1398668.5485092.2098002,1.1269371.2098002,1.7153379,0,4.1287784-3.3468128,7.479671-7.4928646,7.479671-4.1360612,0-7.4928646-3.3508926-7.4928646-7.479671,0-4.1387513,3.3568033-7.479671,7.4928646-7.479671,1.5784968,0,3.0470983.4886718,4.2559471,1.3164221,1.4985729,1.037181,2.6075169,2.6029255,3.0271173,4.447911Zm-6.78354,1.7153379c0-.8277503-.6693626-1.4959342-1.4985729-1.4959342-.8192199,0-1.4985729.6681839-1.4985729,1.4959342,0,.8177774.6793531,1.4959342,1.4985729,1.4959342.8292103,0,1.4985729-.6781568,1.4985729-1.4959342Z"/>
        <circle class="cls-18" cx="38.6871131" cy="285.0204523" r="1.4985729"/>
        <path class="cls-14" d="m.8531424,250.3446978s6.6936257,15.9366856,31.1203641,18.6094214c24.4267384,2.6727358,90.0842129,2.1641181,90.0842129,2.1641181,0,0,44.497625-.8875876,53.459091-8.3373399l8.961466-7.4497523h.0099905c-.1798287,2.1242266-1.5884873,5.9238994-7.8824935,10.980157-6.3939111,5.1360407-20.1108485,7.1705112-29.2421527,7.9683428-1.1489059.0997289-3.2968604.2194037-5.5247388.3390784-3.5666035.1695392-7.3030453.3291055-7.3030453.3291055-.6793531.0199458-1.4286395.0498645-2.2678403.0797832-.6693626.0199458-1.398668.0498645-2.177926.0698103-2.157945.0698103-4.6755475.1396205-7.502855.2094308-1.8782114.0498645-3.8962896.0897561-6.0242631.1296476-12.7578507.2592953-29.6617531.3689971-46.6755509-.1695392-1.788297-.0498645-4.4357758-.1695392-7.0033307-.279241l-.6593721-.0299187c-3.8563276-.1695392-7.3729787-.3390784-7.3729787-.3390784-.7293055-.0398916-1.458611-.0897561-2.177926-.1296476-2.87726-.1795121-5.714558-.37897-8.4919132-.6083466-2.837298-.2393495-5.6046627-.4986447-8.2921034-.7878587C-5.5207877,268.5950949.8531424,250.3446978.8531424,250.3446978Z"/>
      </g>
      <g>
        <path class="cls-5" d="m46.9692261,283.3051145c.1398668.5485092.2098002,1.1269371.2098002,1.7153379,0,4.1287784-3.3468128,7.479671-7.4928646,7.479671-4.1360612,0-7.4928646-3.3508926-7.4928646-7.479671,0-4.1387513,3.3568033-7.479671,7.4928646-7.479671,1.5784968,0,3.0470983.4886718,4.2559471,1.3164221,1.4985729,1.037181,2.6075169,2.6029255,3.0271173,4.447911Z"/>
        <path class="cls-5" d="m124.0058641,283.8436508c.0699334.37897.0999049.7778858.0999049,1.1768016,0,4.1287784-3.3468128,7.479671-7.4928646,7.479671-4.1360612,0-7.4928646-3.3508926-7.4928646-7.479671,0-4.1387513,3.3568033-7.479671,7.4928646-7.479671,2.157945,0,4.0960993.9075334,5.4548054,2.3536031,1.0090391,1.0670997,1.7083731,2.4333863,1.9381543,3.9492663Z"/>
        <path class="cls-5" d="m54.8517196,274.6187233s3.5166511.1695392,7.3729787.3390784l.6593721.0299187c2.5675549.1097018,5.2150337.2293766,7.0033307.279241"/>
        <path class="cls-5" d="m134.9354559,278.8671764c1.049001,2.1142537,3.3967653,3.5802692,6.124168,3.5802692,3.7164608,0,6.7235971-2.7226002,6.7235971-6.0734928,0-.7379942-.1598478-1.4460697-.4196004-2.0943079,9.1313043-.7978316,22.8482416-2.8323021,29.2421527-7.9683428,6.2940062-5.0562576,7.7026648-8.8559304,7.8824935-10.980157.0999049-1.2565847-.2297812-1.9347416-.2297812-1.9347416,0,0,.5894387-6.1034115-12.7578507-.5086176-13.3472894,5.6047668-32.7388228,6.4524628-32.7388228,6.4524628,0,0-78.0856391,1.5258529-88.2259825-1.0172353,0,0-12.1184596-1.2765305-18.3725039-3.500486-6.2440538-2.2239555-19.9210292-10.0227591-25.8254065-7.6392373-5.8943868,2.3835218-5.4847769,3.1614076-5.4847769,3.1614076,0,0-6.3739301,18.2503972,35.0366346,22.7481726,2.6874408.2892139,5.4548054.5485092,8.2921034.7878587,2.7773551.2293766,5.6146532.4288345,8.4919132.6083466.719315.0398916,1.4486205.0897561,2.177926.1296476-.0699334.3490513-.1098953.7080755-.1098953,1.0870455,0,.4587532.0499524.8975605.1498573,1.3363679"/>
        <path class="cls-5" d="m55.8307872,279.186309l.0599429.0897561c1.3487156,1.9048229,3.7164608,3.1713805,6.433873,3.1713805,4.1960041,0,7.5927694-3.0217871,7.5927694-6.7416768,0-.1495934-.019981-.2892139-.0299715-.4388074,17.0137978.5385363,33.9177002.4288345,46.6755509.1695392,2.1279735-.0398916,4.1460517-.0797832,6.0242631-.1296476,2.8273076-.0698103,5.34491-.1396205,7.502855-.2094308.7792579-.0199458,1.5085634-.0498645,2.177926-.0698103.8392008-.0299187,1.5884873-.0598374,2.2678403-.0797832"/>
        <path class="cls-5" d="m134.5358365,274.9478288s3.7364418-.1595663,7.3030453-.3291055c2.2278784-.1196747,4.3758329-.2393495,5.5247388-.3390784"/>
        <polyline class="cls-5" points="123.5962542 284.0331358 124.0058641 283.8436508 134.9354559 278.8671764 141.8388818 274.6187233 141.8488723 274.6087504"/>
        <path class="cls-5" d="m132.2679961,275.017639v.0099729c.0399619.189485.389629,2.1441723-2.1679355,2.4533321v-1.9347416"/>
        <polyline class="cls-5" points="122.5872151 275.306853 122.0677098 279.8943845 122.0577194 279.9841406"/>
        <polyline class="cls-5" points="44.1818805 273.5516235 44.1818805 273.8807291 44.1818805 278.5380708"/>
        <line class="cls-5" x1="54.8916815" y1="277.0421367" x2="62.2246983" y2="274.9578017"/>
        <path class="cls-5" d="m52.6737936,274.4890756s-.3796385,3.1015702,2.2178879,2.553061"/>
        <line class="cls-5" x1="55.8907301" y1="279.276065" x2="62.8840704" y2="274.9877204"/>
        <polyline class="cls-5" points="46.7993878 283.3848976 46.9692261 283.3051145 55.8907301 279.276065"/>
        <circle class="cls-5" cx="38.6871131" cy="285.0204523" r="1.4985729"/>
        <circle class="cls-5" cx="116.6129045" cy="285.0204523" r="1.4985729"/>
        <path class="cls-5" d="m.8531424,250.3446978s6.6936257,15.9366856,31.1203641,18.6094214c24.4267384,2.6727358,90.0842129,2.1641181,90.0842129,2.1641181,0,0,44.497625-.8875876,53.459091-8.3373399l8.961466-7.4497523"/>
      </g>
    </g>
    <g>
      <path class="cls-16" d="m112.0172809,191.8935624c-.0999049,2.7724647,5.1550908,22.5786334,3.9162705,29.4898494-1.2288298,6.9012431-5.5147483,16.9240022-13.257375,29.3502289l-4.5256902-2.8223292s13.0275938-19.9158706,12.887727-25.8597158c-.1298763-5.9538181-3.596575-29.5496868-3.596575-29.5496868,0,0-.2098002-2.4333863,1.088963-2.6627629,1.3087537-.2194037,1.808278-.2194037,1.808278-.2194037,0,0,1.768316-.4986447,1.6784017,2.27382Z"/>
      <path class="cls-5" d="m107.4416382,192.5019089s-.2098002-2.4333863,1.088963-2.6627629c1.3087537-.2194037,1.808278-.2194037,1.808278-.2194037,0,0,1.768316-.4986447,1.6784017,2.27382-.0999049,2.7724647,5.1550908,22.5786334,3.9162705,29.4898494-1.2288298,6.9012431-5.5147483,16.9240022-13.257375,29.3502289l-4.5256902-2.8223292s13.0275938-19.9158706,12.887727-25.8597158c-.1298763-5.9538181-3.596575-29.5496868-3.596575-29.5496868Z"/>
    </g>
    <g id="shoeR">
      <g>
        <g>
          <path class="cls-20" d="m126.5434476,250.8632883c2.1879164,3.0716515,2.2778308,6.153276,1.4885824,8.327367-17.8829701,6.8214599-33.8977192,1.5557716-33.8977192,1.5557716l.9091342-15.7372277s-.0099905-2.553061,1.7982875-2.4732779c1.8182685.0698103,4.2559471,3.0816244,4.2559471,3.0816244,0,0,2.9571839,3.3508926,4.4557568-.1196747,1.5085634-3.4805402,2.8073266-2.5331152,2.8073266-2.5331152,0,0,3.1869651,2.2239555.6493816,5.6845499-2.527593,3.4506215,5.6346341.4088887,5.6346341.4088887,0,0,8.0922937-3.5503505,11.8986689,1.8050939Z"/>
          <path class="cls-8" d="m128.03203,259.1906553c-.5694577,1.6156089-1.6284492,2.7226002-2.6574693,2.9220581-2.4077071.4886718-14.7759289,4.2683989-21.2697448,3.1015702-6.4938159-1.1768016-10.1103719-2.0244976-10.1103719-2.0244976l.1398668-2.4433592s16.0147492,5.2656884,33.8977192-1.5557716Z"/>
        </g>
        <g>
          <path class="cls-4" d="m94.1343108,260.7464268s16.0147492,5.2656884,33.8977192-1.5557716h.0099905"/>
          <path class="cls-1" d="m128.03203,259.1906553c-.5694577,1.6156089-1.6284492,2.7226002-2.6574693,2.9220581-2.4077071.4886718-14.7759289,4.2683989-21.2697448,3.1015702-6.4938159-1.1768016-10.1103719-2.0244976-10.1103719-2.0244976l.1398668-2.4433592.9091342-15.7372277s-.0099905-2.553061,1.7982875-2.4732779c1.8182685.0698103,4.2559471,3.0816244,4.2559471,3.0816244,0,0,2.9571839,3.3508926,4.4557568-.1196747,1.5085634-3.4805402,2.8073266-2.5331152,2.8073266-2.5331152,0,0,3.1869651,2.2239555.6493816,5.6845499-2.527593,3.4506215,5.6346341.4088887,5.6346341.4088887,0,0,8.0922937-3.5503505,11.8986689,1.8050939,2.1879164,3.0716515,2.2778308,6.153276,1.4885824,8.327367Z"/>
        </g>
      </g>
    </g>
    <g>
      <g>
        <path class="cls-9" d="m128.9411643,119.1972895c.0499524,1.8087425.0599429,2.9118767.0599429,2.9118767,0,0-.0299715.5962888-.1098953,1.7093611h-.019981c0-.7851135-3.7464323-1.9379384-9.0214089-3.1802067.7592769-.8546805,1.2388203-1.977691,1.2588012-3.2199593,4.3758329.9043713,7.3829692,1.6696085,7.8325411,1.7789281Z"/>
        <path class="cls-27" d="m109.5196593,152.072676c1.398668.069567,2.0980021.0198763,2.0980021.0198763,0,0,1.3187442-5.1976503,3.6864894-9.133156h.0099905c.8392008-1.4012786,1.828259-2.6435468,2.9372029-3.4286603l-5.5047578-1.6696085-23.3177945-7.085898s-.0099905.4670929.019981,1.2522064c.1298763,4.0348872,1.1588964,16.5370747,8.7017134,18.2861884,5.4548054,1.2720827,9.2411996,1.6596704,11.3691731,1.7590518Zm-7.6327314-71.5745265s16.6641308,1.3217734,21.7892501,8.1890322c1.049001,1.4012786,1.8882019,3.6174851,2.5675549,6.27097-3.3368223-.8646187-15.045672-3.7367428-19.0818284-2.6534849,0,0,15.0157006,2.6634231,19.8211244,6.062269,1.3786871,7.3144754,1.8182685,16.2985592,1.9581353,20.8303537-.4495719-.1093196-3.4567082-.8745568-7.8325411-1.7789281v-.0795052c0-2.7429283-2.2278784-4.9690729-4.995243-4.9690729-.4196004,0-.8292103.0496907-1.2188393.1590103-.2397717-.0993815-.5095148-.1590103-.7792579-.1590103-1.0989535,0-1.9980972.8944331-1.9980972,1.9876292v.0198763c-.2897241.3776495-.5294958.7950517-.6893435,1.2522064-3.6065655-.5764125-7.4828741-1.093196-11.3192207-1.4112167.019981-.1192578.019981-.2385155.019981-.3577733,0-2.4646602-2.0080877-4.4721656-4.4957187-4.4721656-2.4776405,0-4.4957187,2.0075055-4.4957187,4.4721656v.0397526c-1.7982875.0298144-3.5266416.139134-5.1351098.3478351,0,0,2.0780211.337897,5.3149386.884495.5594672,1.8484951,2.2778308,3.200083,4.31589,3.200083,1.4885824,0,2.7973361-.7155465,3.6065655-1.8186807,3.8163657.6857321,8.0523318,1.4807837,12.0984786,2.2857735.6294006,2.0273818,2.527593,3.5081655,4.7754523,3.5081655,1.4885824,0,2.8173171-.6459795,3.7364418-1.6696085,5.2749766,1.2422682,9.0214089,2.3950932,9.0214089,3.1802067h.019981c-.389629,5.6448668-2.0380592,24.457777-7.502855,43.5489552-3.8163657-.884495-24.766415-5.5752998-36.3353978-5.1280833-1.9980972-12.8400845-4.0661278-28.7013652-5.2450052-42.1278003-1.8981924-21.4763332,5.5746912-36.721449,7.1232166-39.6134494h14.9557576Z"/>
        <path class="cls-15" d="m121.1086232,117.3388562v.0795052c-1.8682209-.3875877-3.9762135-.8049898-6.2540443-1.2124538.739296-.2882062,1.2588012-1.0037527,1.2588012-1.8484951,0-.8248661-.4995243-1.5304745-1.2188393-1.8286188.389629-.1093196.7992389-.1590103,1.2188393-.1590103,2.7673646,0,4.995243,2.2261447,4.995243,4.9690729Z"/>
        <path class="cls-9" d="m121.3883568,167.3674825c-.4895338,1.7292374-1.0190296,3.4684129-1.5784968,5.1976503-3.1569936-2.8721242-23.7673664-6.469733-34.427215-8.179094-.1098953-.7056084-.2197907-1.4211549-.329686-2.1466395,11.5689829-.4472166,32.5190322,4.2435883,36.3353978,5.1280833Z"/>
        <path class="cls-15" d="m119.8498219,120.6383207c-.9191247,1.023629-2.2478594,1.6696085-3.7364418,1.6696085-2.2478594,0-4.1460517-1.4807837-4.7754523-3.5081655,3.0271173.616165,5.9543297,1.2323301,8.5118941,1.838557Z"/>
        <path class="cls-9" d="m107.1619046,92.3046668c4.0361564-1.0832579,15.745006,1.7888663,19.0818284,2.6534849.2697431,1.0733198.5195053,2.2162065.739296,3.408784-4.8054238-3.3988459-19.8211244-6.062269-19.8211244-6.062269Z"/>
        <path class="cls-27" d="m114.1152829,112.3697833c.2697431,0,.5394862.0596289.7792579.1590103-1.1289249.2683299-2.1079926.9341857-2.7773551,1.8484951v-.0198763c0-1.093196.8991437-1.9876292,1.9980972-1.9876292Z"/>
        <path class="cls-15" d="m119.8498219,120.6383207c-2.5575644-.6062269-5.4847769-1.2223919-8.5118941-1.838557-.1398668-.4670929-.2197907-.954062-.2197907-1.4609074,0-.5962888.1098953-1.1727012.3097051-1.7093611.4595624.0795052.9191247.1490722,1.3686966.2285774.349667.2981444.8092294.4869691,1.3187442.4869691.2597526,0,.5095148-.0496907.739296-.139134,2.2778308.407464,4.3858234.8248661,6.2540443,1.2124538-.019981,1.2422682-.4995243,2.3652787-1.2588012,3.2199593Z"/>
        <path class="cls-15" d="m112.1171857,114.3772888c.0099905.5863506.2697431,1.1130723.6793531,1.4807837-.4495719-.0795052-.9091342-.1490722-1.3686966-.2285774.1598478-.4571547.3996194-.8745568.6893435-1.2522064Z"/>
        <path class="cls-27" d="m119.80986,172.5651328c-2.1679355,6.678434-4.8353953,13.2475484-8.1022842,19.1508071-3.596575,6.4995474-7.1332071,11.6475069-10.4400579,15.7221467-7.3230263-3.4187222-9.8606098-14.7780229-12.1384406-23.2254469-.9391057-3.4783511-2.3078023-10.7729501-3.7464323-19.826601,10.6598486,1.7093611,31.2702214,5.3069699,34.427215,8.179094Z"/>
        <path class="cls-25" d="m115.3041508,142.9593963c-2.3677452,3.9355058-3.6864894,9.133156-3.6864894,9.133156,0,0-.699334.0496907-2.0980021-.0198763.1298763-.9043713-.4096099-2.3652787-1.1489059-3.8560006-.369648-.7552991-.7992389-1.5205363-1.2088488-2.2162065,0,0,3.7764037-2.7429283,8.1422461-3.0410726Z"/>
        <path class="cls-9" d="m111.4278422,115.6294952c-.1998097.5366599-.3097051,1.1130723-.3097051,1.7093611,0,.5068454.0799239.9938146.2197907,1.4609074-4.0461469-.8049898-8.282113-1.6000415-12.0984786-2.2857735.4995243-.6459795.8092294-1.431093.8691723-2.2957117,3.8363467.3180207,7.7126552.8348043,11.3192207,1.4112167Z"/>
        <path class="cls-19" d="m115.3041508,142.9593963c-4.3658424.2981444-8.1422461,3.0410726-8.1422461,3.0410726-.9790676-1.6596704-1.8882019-2.9516293-1.8882019-2.9516293-3.2169365,0-7.1232166-4.9889492-7.1232166-4.9889492,3.6065655,1.6596704,8.2921034,3.0112582,14.0066615,3.0112582l.5894387-3.2100211,5.5047578,1.6696085c-1.108944.7851135-2.0980021,2.0273818-2.9372029,3.4286603h-.0099905Z"/>
        <path class="cls-15" d="m99.2394492,116.5139901c-.8092294,1.1031342-2.117983,1.8186807-3.6065655,1.8186807-2.0380592,0-3.7564228-1.3515878-4.31589-3.200083,2.1979069.3776495,4.9353001.8447424,7.9224555,1.3814023Z"/>
        <path class="cls-13" d="m108.0011055,148.256428c-15.5152249-.8745568-16.873931-13.0388474-16.9938168-14.7482085,1.4286395,1.2323301,3.8263562,3.0211963,7.1431975,4.5516708,0,0,3.9062801,4.9889492,7.1232166,4.9889492,0,0,.9091342,1.291959,1.8882019,2.9516293.4096099.6956702.8392008,1.4609074,1.2088488,2.2162065l-.369648.0397526Z"/>
        <path class="cls-6" d="m96.132408,112.3697833c0,.6360413-.2897241,1.1925775-.7492865,1.5602889-.8591818-.0298144-1.7083731-.0496907-2.5475739-.0496907-.4295909-.3677114-.699334-.9043713-.699334-1.5105982,0-1.093196.8991437-1.9876292,1.9980972-1.9876292,1.108944,0,1.9980972.8944331,1.9980972,1.9876292Z"/>
        <path class="cls-15" d="m95.3831216,113.9300722c-.349667.2683299-.7792579.4273403-1.2488108.4273403-.4995243,0-.9490962-.1788866-1.2987632-.477031.8392008,0,1.6883921.0198763,2.5475739.0496907Z"/>
        <path class="cls-22" d="m89.1290773,184.2126397c2.2778308,8.447424,4.8154143,19.8067247,12.1384406,23.2254469-10.6998106,13.2276721-18.9519521,15.1755487-18.9519521,15.1755487,0,0-6.3339682,3.7864336-7.7226457-12.4823112-1.398668-16.2687448-2.0280687-24.6565399-2.0280687-24.6565399,0,0-4.8853477-48.2298219-5.2649862-52.7715545s-1.768316-20.1148072-1.1389154-36.0655313c.6393911-15.9507241,16.4743115-16.1395489,16.4743115-16.1395489h4.295909c-1.5485253,2.8920004-9.0214089,18.1371162-7.1232166,39.6134494,1.1788774,13.4264351,3.246908,29.2877158,5.2450052,42.1278003-2.5875359.0993815-4.7055189.4571547-6.0542346,1.1727012,0,0,2.5475739.3677114,6.3839206.9739383,1.43863,9.0536509,2.8073266,16.3482499,3.7464323,19.826601Z"/>
        <path class="cls-15" d="m91.3169937,115.1325879c-.1098953-.3875877-.1798287-.8049898-.1798287-1.2323301.5594672-.0198763,1.1189344-.0298144,1.6983826-.0198763.349667.2981444.7992389.477031,1.2987632.477031.4695528,0,.8991437-.1590103,1.2488108-.4273403,1.5485253.0596289,3.1370126.1590103,4.7254999.2882062-.0599429.8646187-.369648,1.6497322-.8691723,2.2957117-2.9871553-.5366599-5.7245485-1.0037527-7.9224555-1.3814023Z"/>
        <path class="cls-15" d="m92.1362136,112.3697833c0,.6062269.2697431,1.1428868.699334,1.5105982-.5794482-.0099381-1.1389154,0-1.6983826.0198763v-.0397526c0-2.4646602,2.0180782-4.4721656,4.4957187-4.4721656,2.487631,0,4.4957187,2.0075055,4.4957187,4.4721656,0,.1192578,0,.2385155-.019981.3577733-1.5884873-.1291959-3.1769746-.2285774-4.7254999-.2882062.4595624-.3677114.7492865-.9242476.7492865-1.5602889,0-1.093196-.8891533-1.9876292-1.9980972-1.9876292-1.0989535,0-1.9980972.8944331-1.9980972,1.9876292Z"/>
        <path class="cls-9" d="m91.137165,113.9002578c0,.4273403.0699334.8447424.1798287,1.2323301-3.2369175-.546598-5.3149386-.884495-5.3149386-.884495,1.6084683-.2087011,3.3368223-.3180207,5.1351098-.3478351Z"/>
        <path class="cls-21" d="m91.0072887,133.5082196c.1198858,1.7093611,1.4785919,13.8736516,16.9938168,14.7482085l.369648-.0397526c.739296,1.4907219,1.2787822,2.9516293,1.1489059,3.8560006-2.1279735-.0993815-5.9143678-.4869691-11.3691731-1.7590518-7.542817-1.7491137-8.571837-14.2513012-8.7017134-18.2861884,0,0,.5294958.5962888,1.5585158,1.4807837Z"/>
        <path class="cls-9" d="m85.052959,162.2393992c.1098953.7254846.2197907,1.4410311.329686,2.1466395-3.8363467-.6062269-6.3839206-.9739383-6.3839206-.9739383,1.3487156-.7155465,3.4666987-1.0733198,6.0542346-1.1727012Z"/>
      </g>
      <g>
        <path class="cls-2" d="m101.2675179,207.4380866c-10.6998106,13.2276721-18.9519521,15.1755487-18.9519521,15.1755487,0,0-6.3339682,3.7864336-7.7226457-12.4823112-1.398668-16.2687448-2.0280687-24.6565399-2.0280687-24.6565399,0,0-4.8853477-48.2298219-5.2649862-52.7715545s-1.768316-20.1148072-1.1389154-36.0655313c.6393911-15.9507241,16.4743115-16.1395489,16.4743115-16.1395489h19.2516667s16.6641308,1.3217734,21.7892501,8.1890322c1.049001,1.4012786,1.8882019,3.6174851,2.5675549,6.27097.2697431,1.0733198.5195053,2.2162065.739296,3.408784,1.3786871,7.3144754,1.8182685,16.2985592,1.9581353,20.8303537.0499524,1.8087425.0599429,2.9118767.0599429,2.9118767,0,0-.0299715.5962888-.1098953,1.7093611-.389629,5.6448668-2.0380592,24.457777-7.502855,43.5489552-.4895338,1.7292374-1.0190296,3.4684129-1.5784968,5.1976503-2.1679355,6.678434-4.8353953,13.2475484-8.1022842,19.1508071-3.596575,6.4995474-7.1332071,11.6475069-10.4400579,15.7221467Z"/>
        <path class="cls-2" d="m115.3141413,142.9593963c.8392008-1.4012786,1.828259-2.6435468,2.9372029-3.4286603l-5.5047578-1.6696085-23.3177945-7.085898s-.0099905.4670929.019981,1.2522064c.1298763,4.0348872,1.1588964,16.5370747,8.7017134,18.2861884,5.4548054,1.2720827,9.2411996,1.6596704,11.3691731,1.7590518,1.398668.069567,2.0980021.0198763,2.0980021.0198763,0,0,1.3187442-5.1976503,3.6864894-9.133156"/>
        <path class="cls-2" d="m91.137165,113.9002578v-.0397526c0-2.4646602,2.0180782-4.4721656,4.4957187-4.4721656,2.487631,0,4.4957187,2.0075055,4.4957187,4.4721656,0,.1192578,0,.2385155-.019981.3577733-.0599429.8646187-.369648,1.6497322-.8691723,2.2957117-.8092294,1.1031342-2.117983,1.8186807-3.6065655,1.8186807-2.0380592,0-3.7564228-1.3515878-4.31589-3.200083-.1098953-.3875877-.1798287-.8049898-.1798287-1.2323301Z"/>
        <path class="cls-2" d="m114.8945409,112.5287936c.389629-.1093196.7992389-.1590103,1.2188393-.1590103,2.7673646,0,4.995243,2.2261447,4.995243,4.9690729v.0795052c-.019981,1.2422682-.4995243,2.3652787-1.2588012,3.2199593-.9191247,1.023629-2.2478594,1.6696085-3.7364418,1.6696085-2.2478594,0-4.1460517-1.4807837-4.7754523-3.5081655-.1398668-.4670929-.2197907-.954062-.2197907-1.4609074,0-.5962888.1098953-1.1727012.3097051-1.7093611.1598478-.4571547.3996194-.8745568.6893435-1.2522064"/>
        <path class="cls-2" d="m92.8355476,113.8803815c-.4295909-.3677114-.699334-.9043713-.699334-1.5105982,0-1.093196.8991437-1.9876292,1.9980972-1.9876292,1.108944,0,1.9980972.8944331,1.9980972,1.9876292,0,.6360413-.2897241,1.1925775-.7492865,1.5602889-.349667.2683299-.7792579.4273403-1.2488108.4273403-.4995243,0-.9490962-.1788866-1.2987632-.477031Z"/>
        <path class="cls-2" d="m114.8945409,112.5287936c.719315.2981444,1.2188393,1.0037527,1.2188393,1.8286188,0,.8447424-.5195053,1.5602889-1.2588012,1.8484951-.2297812.0894433-.4795433.139134-.739296.139134-.5095148,0-.9690771-.1888248-1.3187442-.4869691-.4096099-.3677114-.6693626-.8944331-.6793531-1.4807837v-.0198763c0-1.093196.8991437-1.9876292,1.9980972-1.9876292.2697431,0,.5394862.0596289.7792579.1590103Z"/>
        <path class="cls-2" d="m89.4487728,132.0274358s.5294958.5962888,1.5585158,1.4807837c1.4286395,1.2323301,3.8263562,3.0211963,7.1431975,4.5516708,3.6065655,1.6596704,8.2921034,3.0112582,14.0066615,3.0112582l.5894387-3.2100211"/>
      </g>
    </g>
    <g>
      <g>
        <path class="cls-12" d="m131.2044182,106.5301744c.8791628,2.8023834-2.5775454,4.3880736-2.5775454,4.3880736,0,0-10.1902958,4.826881-17.6332079,1.5457987-7.4529026-3.2810823-2.1879164-7.0807552.349667-6.0934386,0,0,5.8843963,3.0915973,15.6850631-.8277503,0,0,3.2968604-1.8050939,4.1760232.9873166Z"/>
        <path class="cls-12" d="m104.4898585,96.058635c.9990486.8078045,1.2188393,3.6401065-.389629,4.7770165-1.6084683,1.1269371-3.3168414.189485-3.3168414.189485,0,0-7.173169-2.742546-12.6079934-.1296476s-6.2640348.2892139-6.2640348.2892139c0,0-1.1189344-3.4705673,1.4686015-4.5177213,2.5775454-1.0571268,5.3249291-3.2511636,14.0865854-2.2339284,0,0,6.0142726.8177774,7.0233117,1.6255818Z"/>
      </g>
      <g>
        <path class="cls-5" d="m81.91136,101.1847029s-1.1189344-3.4705673,1.4686015-4.5177213c2.5775454-1.0571268,5.3249291-3.2511636,14.0865854-2.2339284,0,0,6.0142726.8177774,7.0233117,1.6255818.9990486.8078045,1.2188393,3.6401065-.389629,4.7770165-1.6084683,1.1269371-3.3168414.189485-3.3168414.189485,0,0-7.173169-2.742546-12.6079934-.1296476s-6.2640348.2892139-6.2640348.2892139Z"/>
        <path class="cls-5" d="m111.3433319,106.3706081s5.8843963,3.0915973,15.6850631-.8277503c0,0,3.2968604-1.8050939,4.1760232.9873166.8791628,2.8023834-2.5775454,4.3880736-2.5775454,4.3880736,0,0-10.1902958,4.826881-17.6332079,1.5457987-7.4529026-3.2810823-2.1879164-7.0807552.349667-6.0934386Z"/>
      </g>
    </g>
    <g>
      <g>
        <path class="cls-12" d="m101.3374513,71.5207243c-.1298763-.6482382-1.0390106-5.1160949-2.4077071-10.4815122,0,0,2.0680306-12.585793-.7792579-17.5622674-2.8472885-4.9764744-6.0742155-7.6093186-6.0742155-7.6093186,0,0-5.1850623-2.3436302-5.2749766-5.2656884-.0999049-2.932031,2.3377737-3.6101879,0-5.0762034-2.3477642-1.4660155-4.4957187-1.3363679-3.6565179-2.9918684.8491913-1.6555005.7992389-2.6029255-.1798287-4.0988597-.9890581-1.4959342-5.0252145-3.8994018-5.0252145-3.8994018,0,0-10.6398677-5.4751191,2.4176976-13.8224319,1.808278.3291055,3.8163657,1.0870455,6.1141775,2.3436302,8.1622271,4.4578839,31.4100882,14.3410225,19.8910578,78.3370872l-6.473835-.4786989s-2.6674598-3.3708384-6.4238825-7.2702402h.0099905s-.9690771-7.0807552-6.7235971-12.6057388-12.8977175-6.1831947-12.8977175-6.1831947c0,0-2.6574693,1.6355547-4.9552811,1.4261239-.9490962-.0797832-1.8382494-.4786989-2.4576596-1.4261239-2.117983-3.2511636,5.1151289-8.1877465,0-9.364548-5.1151289-1.1668287-13.647004-7.1705112-13.647004-7.1705112,3.9062801-2.1042808,8.941485-1.9447145,8.941485-1.9447145,0,0,14.6660335.7180484,21.16984,5.6845499,6.4838255,4.9465557,16.0547111,21.5713711,18.4324468,29.4599307Z"/>
        <path class="cls-23" d="m98.1504862,43.4769446c2.8472885,4.9764744.7792579,17.5622674.7792579,17.5622674-2.117983-8.3672586-5.34491-18.9185811-8.4119893-20.5940274,0,0-2.5575644-1.6953921-5.404853-1.6953921s-4.5057092-4.8368539-4.5057092-4.8368539c0,0-.8491913-3.1813534,1.3587061-3.221245,0,0-11.5190304-4.3781007-10.9695537-7.5594541.5594672-3.1813534.1698383-3.5603234,3.8663181-2.7624918,0,0-10.2802102-10.9402654-5.6446246-15.4380409,3.3268319-3.2312179,6.5637493-5.0861763,11.139392-4.2185344-13.0575653,8.3473128-2.4176976,13.8224319-2.4176976,13.8224319,0,0,4.0361564,2.4034676,5.0252145,3.8994018.9790676,1.4959342,1.0290201,2.4433592.1798287,4.0988597-.8392008,1.6555005,1.3087537,1.5258529,3.6565179,2.9918684,2.3377737,1.4660155-.0999049,2.1441723,0,5.0762034.0899144,2.9220581,5.2749766,5.2656884,5.2749766,5.2656884,0,0,3.226927,2.6328442,6.0742155,7.6093186Z"/>
        <path class="cls-23" d="m93.4649482,73.6449509c-5.6745961-5.8939807-13.8468137-12.9946817-19.0618474-11.4688288-8.6717419,2.5430881-5.6146532-3.9093747-5.6146532-3.9093747l.1098953-1.984606c2.2978118.2094308,4.9552811-1.4261239,4.9552811-1.4261239,0,0,7.1431975.658211,12.8977175,6.1831947s6.7235971,12.6057388,6.7235971,12.6057388h-.0099905Z"/>
        <path class="cls-23" d="m66.4406834,54.8560174c.6194101.947425,1.5085634,1.3463408,2.4576596,1.4261239l-.1098953,1.984606s-19.6412956,1.705365-10.3701245-4.4080194c0,0-11.9486213-3.7398355-9.7806859-10.7806991.699334-2.2638471,2.2978118-3.7597813,4.1560422-4.7570707,0,0,8.5318751,6.0036826,13.647004,7.1705112,5.1151289,1.1768016-2.117983,6.1133844,0,9.364548Z"/>
      </g>
      <path class="cls-5" d="m101.3374513,71.5207243c-2.3777357-7.8885596-11.9486213-24.513375-18.4324468-29.4599307-6.5038064-4.9665015-21.16984-5.6845499-21.16984-5.6845499,0,0-5.035205-.1595663-8.941485,1.9447145-1.8582304.9972895-3.4567082,2.4932237-4.1560422,4.7570707-2.1679355,7.0408636,9.7806859,10.7806991,9.7806859,10.7806991-9.2711711,6.1133844,10.3701245,4.4080194,10.3701245,4.4080194,0,0-3.0570887,6.4524628,5.6146532,3.9093747,5.2150337-1.5258529,13.3872513,5.5748481,19.0618474,11.4688288,3.7564228,3.8994018,6.4238825,7.2702402,6.4238825,7.2702402l6.473835.4786989C117.8816962,17.3978252,94.6338351,7.5146866,86.471608,3.0568027c-2.2978118-1.2565847-4.3058995-2.0145247-6.1141775-2.3436302-4.5756426-.8676418-7.8125601.9873166-11.139392,4.2185344-4.6355855,4.4977755,5.6446246,15.4380409,5.6446246,15.4380409-3.6964798-.7978316-3.3068509-.4188616-3.8663181,2.7624918-.5494767,3.1813534,10.9695537,7.5594541,10.9695537,7.5594541-2.2078974.0398916-1.3587061,3.221245-1.3587061,3.221245,0,0,1.6584207,4.8368539,4.5057092,4.8368539s5.404853,1.6953921,5.404853,1.6953921c3.0670792,1.6754463,6.2940062,12.2267688,8.4119893,20.5940274,1.3686966,5.3654173,2.2778308,9.8332741,2.4077071,10.4815122,0,.0299187.0099905.0498645.019981.0797832"/>
    </g>
    <g>
      <g>
        <path class="cls-12" d="m131.5386906,35.3889271c1.6983826,6.622002,1.6983826,8.9057949-1.108944,17.3927282-2.7973361,8.4969062-19.1717428,29.8688194-19.1717428,29.8688194l-4.1760232-.847696s1.6384397-4.3980465,3.3068509-9.7734367c1.418649-1.8350126,12.0185547-15.8369567,9.700762-20.9430787-2.4776405-5.4651463-6.124168-5.7842789-5.734539-8.4570146.389629-2.6627629,3.5166511-5.0662305,3.5166511-5.0662305,0,0,3.5865845-1.5657445.2697431-5.0762034-3.3268319-3.5104589-6.9134164-5.7942518-5.9942916-8.8459575.8092294-2.7226002,6.7435781-6.3228152,8.0223603-7.0707823.6593721.3390784,1.3786871.7379942,2.1879164,1.2067202,3.0970507,1.7851481,7.4828741,10.9901299,9.1812567,17.6121319Z"/>
        <path class="cls-23" d="m112.1471572,23.6408572c-.9191247,3.0517058,2.6674598,5.3354986,5.9942916,8.8459575,3.3168414,3.5104589-.2697431,5.0762034-.2697431,5.0762034,0,0-3.1270221,2.4034676-3.5166511,5.0662305-.389629,2.6727358,3.2568985,2.9918684,5.734539,8.4570146,2.3177928,5.106122-8.282113,19.1080661-9.700762,20.9430787,2.0380592-6.532246,4.1360612-14.5005888,3.4666987-17.8016169-1.2388203-6.0236284-4.3458614-7.5494812-4.3458614-7.5494812l-.4895338-6.4923544h2.4476691c-1.3587061,0-2.7373932-2.463305-2.7373932-2.463305,0,0-1.3487156-9.1950088-2.2278784-10.601187-.719315-1.1568558,3.946242,2.0244976,3.946242,2.0244976,0,0-3.1869651-5.8939807-.9391057-9.0753341,2.2378689-3.1913263,4.3458614-4.2085615,6.1341584-4.5875315,1.3187442-.279241,2.6574693.1296476,4.5256902,1.0870455-1.2787822.7479671-7.2131309,4.3481821-8.0223603,7.0707823Z"/>
      </g>
      <path class="cls-5" d="m110.3888316,72.0293419c2.0380592-6.532246,4.1360612-14.5005888,3.4666987-17.8016169-1.2388203-6.0236284-4.3458614-7.5494812-4.3458614-7.5494812l-.4895338-6.4923544h2.4476691c-1.3587061,0-2.7373932-2.463305-2.7373932-2.463305,0,0-1.3487156-9.1950088-2.2278784-10.601187-.719315-1.1568558,3.946242,2.0244976,3.946242,2.0244976,0,0-3.1869651-5.8939807-.9391057-9.0753341,2.2378689-3.1913263,4.3458614-4.2085615,6.1341584-4.5875315,1.3187442-.279241,2.6574693.1296476,4.5256902,1.0870455.6593721.3390784,1.3786871.7379942,2.1879164,1.2067202,3.0970507,1.7851481,7.4828741,10.9901299,9.1812567,17.6121319s1.6983826,8.9057949-1.108944,17.3927282c-2.7973361,8.4969062-19.1717428,29.8688194-19.1717428,29.8688194l-4.1760232-.847696s1.6384397-4.3980465,3.3068509-9.7734367Z"/>
    </g>
    <g>
      <g>
        <path class="cls-16" d="m75.2922541,137.2022083s3.2968604.5584821,2.5575644,5.3554444c-.7492865,4.7869894-7.2331119,2.9619497-7.2331119,2.9619497,0,0-7.4828741-1.5457987-19.6412956-2.5031965l-5.6546151,16.943948-1.0989535,3.3010281c-2.3677452,1.6355547-5.5547103-.8676418-5.5547103-.8676418,0,0,.2597526-1.2466118.6493816-3.221245.8292103-4.1586971,2.2678403-11.548612,3.246908-17.3827553,1.4286395-8.6066081,5.8244534-7.8486681,5.8244534-7.8486681l26.904379,3.2611365Z"/>
        <path class="cls-17" d="m50.5358296,168.5769348c1.398668,4.8368539,1.768316,14.191429,1.2687917,18.928554-.6693626,6.3627068-6.6137018,2.3137116-6.6137018,2.3137116-3.0470983,2.1641181-4.4557568-.0099729-4.4557568-.0099729-2.9571839,1.6455276-5.0851574-1.5059071-5.0851574-1.5059071,0,0-4.1260707-.3191326-5.015224-11.0798859s4.8953382-12.8650341,4.8953382-12.8650341c.1198858,3.4007571,9.4809713,4.2185344,9.4809713,4.2185344,0,0,4.0361564.1296476,3.7164608-3.0217871.7293055.2293766,1.3287346,1.3563137,1.808278,3.0217871Z"/>
        <path class="cls-26" d="m44.2218424,163.2613819l1.0989535-3.3010281.329686.1097018s2.137964.6981026,2.487631,1.8449855c0,0-3.0570887,1.4859613-3.9162705,1.3463408Z"/>
        <path class="cls-10" d="m44.2218424,163.2613819c.8591818.1396205,3.9162705-1.3463408,3.9162705-1.3463408,0,0,.2697431.4886718.5894387,3.6401065s-3.7164608,3.0217871-3.7164608,3.0217871c0,0-9.3610854-.8177774-9.4809713-4.2185344-.1098953-3.41073,1.1688869-3.879456,1.1688869-3.879456.1098953.9075334,1.9681258,1.9147958,1.9681258,1.9147958,0,0,3.1869651,2.5031965,5.5547103.8676418Z"/>
        <path class="cls-26" d="m36.6990064,160.4789443c-.0699334-.5584821.5195053-1.0770726,2.6175074-1.3064492-.389629,1.9746331-.6493816,3.221245-.6493816,3.221245,0,0-1.8582304-1.0072624-1.9681258-1.9147958Z"/>
      </g>
      <g>
        <path class="cls-5" d="m44.2218424,163.2613819l1.0989535-3.3010281,5.6546151-16.943948c12.1584215.9573979,19.6412956,2.5031965,19.6412956,2.5031965,0,0,6.4838255,1.8250397,7.2331119-2.9619497.739296-4.7969623-2.5575644-5.3554444-2.5575644-5.3554444l-26.904379-3.2611365s-4.3958139-.75794-5.8244534,7.8486681c-.9790676,5.8341434-2.4176976,13.2240583-3.246908,17.3827553-.389629,1.9746331-.6493816,3.221245-.6493816,3.221245,0,0,3.1869651,2.5031965,5.5547103.8676418Z"/>
        <path class="cls-5" d="m45.6504819,160.0700556s2.137964.6981026,2.487631,1.8449855c0,0-3.0570887,1.4859613-3.9162705,1.3463408"/>
        <path class="cls-5" d="m38.6671321,162.3937401s-1.8582304-1.0072624-1.9681258-1.9147958c-.0699334-.5584821.5195053-1.0770726,2.6175074-1.3064492"/>
        <path class="cls-5" d="m36.6990064,160.4789443s-1.2787822.468726-1.1688869,3.879456c.1198858,3.4007571,9.4809713,4.2185344,9.4809713,4.2185344,0,0,4.0361564.1296476,3.7164608-3.0217871s-.5894387-3.6401065-.5894387-3.6401065"/>
        <path class="cls-5" d="m35.5301195,164.3584003s-5.7844914,2.1042808-4.8953382,12.8650341,5.015224,11.0798859,5.015224,11.0798859c0,0,2.1279735,3.1514347,5.0851574,1.5059071,0,0,1.4086585,2.174091,4.4557568.0099729,0,0,5.9443392,4.0489952,6.6137018-2.3137116.4995243-4.7371249.1298763-14.0917001-1.2687917-18.928554-.4795433-1.6654734-1.0789725-2.7924105-1.808278-3.0217871"/>
        <path class="cls-5" d="m50.5358296,168.5769348c7.2331119,4.916637,1.4785919,12.0572296,1.4785919,12.0572296"/>
      </g>
    </g>
    <g>
      <g>
        <path class="cls-17" d="m168.8531561,115.2119756s3.556613,1.3762595-.6693626,7.6093186c-.6294006.9274792-1.1788774,1.5856902-1.6484302,2.0244976-2.6974312,2.4732779-3.0071363-2.0643892-3.0071363-2.0643892-3.5266416.4587532-3.1270221-2.9619497-3.1270221-2.9619497-4.1760232,1.2466118-3.246908-4.1387513-3.246908-4.1387513-.1798287,2.0544163-3.576594,1.9447145-3.576594,1.9447145.5594672-1.6654734.1998097-4.4578839.1998097-4.4578839-.1798287-1.8449855-.5694577-3.121516-1.0789725-3.979185,4.4357758-11.1596691,6.1141775.8875876,6.1141775.8875876,2.8073266-6.0236284,6.1841109.0997289,6.1841109.0997289,5.1950528-.947425,3.8563276,5.0363118,3.8563276,5.0363118Z"/>
        <path class="cls-17" d="m153.5777029,117.6254161s3.3967653.1097018,3.576594-1.9447145c0,0-.9291152,5.3853631,3.246908,4.1387513,0,0-.3996194,3.4207029,3.1270221,2.9619497,0,0,.3097051,4.5376671,3.0071363,2.0643892-1.1289249,5.205851-5.8444344,6.2928965-5.8444344,6.2928965,0,0-6.2940062,1.8150668-11.6988592-2.7824376,0,0-4.4857282-3.2312179-4.5656521-6.811487s1.6584207-5.7044957,1.6584207-5.7044957c0,0,2.2878213-2.4134405,2.0080877-4.7670436-.2697431-2.363576-.4395814-3.5503505.4795433-3.600215.6793531-.0398916,2.7773551-.6183195,4.1260707,1.7153379.5095148.8576689.8991437,2.1341994,1.0789725,3.979185,0,0,.3596575,2.7924105-.1998097,4.4578839Z"/>
        <path class="cls-26" d="m148.9920698,128.3562507c5.404853,4.5975044,11.6988592,2.7824376,11.6988592,2.7824376.2597526,3.6401065-4.2659376,3.9193476-4.2659376,3.9193476,0,0-4.7954333.6881297-6.2840157-1.13691,0,0-1.4885824-2.3236844-1.1489059-5.5648752Z"/>
        <path class="cls-16" d="m156.4249914,135.0580359s-2.507612,13.4534348-3.3767843,18.3800448-4.2459566,4.3082905-4.2459566,4.3082905l-23.3377755-2.4533321,1.6184587-8.6066081,18.2126561,1.6156089,4.8453857-14.380914c1.4885824,1.8250397,6.2840157,1.13691,6.2840157,1.13691Z"/>
      </g>
      <g>
        <path class="cls-5" d="m160.690929,131.1386883s-6.2940062,1.8150668-11.6988592-2.7824376"/>
        <path class="cls-5" d="m156.4249914,135.0580359s4.5256902-.279241,4.2659376-3.9193476c0,0,4.7155094-1.0870455,5.8444344-6.2928965"/>
        <path class="cls-5" d="m153.5777029,117.6254161s3.3967653.1097018,3.576594-1.9447145c0,0-.9291152,5.3853631,3.246908,4.1387513,0,0-.3996194,3.4207029,3.1270221,2.9619497,0,0,.3097051,4.5376671,3.0071363,2.0643892.4695528-.4388074,1.0190296-1.0970184,1.6484302-2.0244976,4.2259756-6.2330591.6693626-7.6093186.6693626-7.6093186,0,0,1.3387251-5.9837368-3.8563276-5.0363118,0,0-3.3767843-6.1233573-6.1841109-.0997289,0,0-1.6784017-12.0472567-6.1141775-.8875876"/>
        <path class="cls-5" d="m150.1409757,133.9211259s-1.4885824-2.3236844-1.1489059-5.5648752c0,0-4.4857282-3.2312179-4.5656521-6.811487s1.6584207-5.7044957,1.6584207-5.7044957c0,0,2.2878213-2.4134405,2.0080877-4.7670436-.2697431-2.363576-.4395814-3.5503505.4795433-3.600215.6793531-.0398916,2.7773551-.6183195,4.1260707,1.7153379.5095148.8576689.8991437,2.1341994,1.0789725,3.979185,0,0,.3596575,2.7924105-.1998097,4.4578839-.5494767,1.6754463,1.4686015,3.0217871,1.4686015,3.0217871,0,0,.8491913,1.226666.4495719,4.4578839"/>
        <path class="cls-5" d="m150.1409757,133.9211259l-4.8453857,14.380914-18.2126561-1.6156089-1.6184587,8.6066081,23.3377755,2.4533321s3.3767843.6183195,4.2459566-4.3082905,3.3767843-18.3800448,3.3767843-18.3800448c0,0-4.7954333.6881297-6.2840157-1.13691Z"/>
      </g>
    </g>
    <g>
      <path class="cls-16" d="m84.2537201,190.8164898s2.1279735.8078045,0,3.5104589c-2.137964,2.7026544-11.4990495,26.3683334-17.8130367,32.3720159-6.3239777,5.9937097-18.0028559,12.875007-34.9067583,19.6067108l-2.4476691-6.1433031s27.7036179-10.3418917,31.9595649-16.3954388c4.2459566-6.0435741,18.1826846-32.1925038,18.1826846-32.1925038,0,0,1.5784968-2.5929526,3.0570887-1.8549584,1.4686015.7280213,1.9681258,1.0970184,1.9681258,1.0970184Z"/>
      <path class="cls-5" d="m79.2285056,191.5744297s1.5784968-2.5929526,3.0570887-1.8549584c1.4686015.7280213,1.9681258,1.0970184,1.9681258,1.0970184,0,0,2.1279735.8078045,0,3.5104589-2.137964,2.7026544-11.4990495,26.3683334-17.8130367,32.3720159-6.3239777,5.9937097-18.0028559,12.875007-34.9067583,19.6067108l-2.4476691-6.1433031s27.7036179-10.3418917,31.9595649-16.3954388c4.2459566-6.0435741,18.1826846-32.1925038,18.1826846-32.1925038Z"/>
    </g>
  </g>
  <g id="shoeL">
    <g>
      <g>
        <path class="cls-20" d="m36.0688565,239.280652s2.45.73,1.84,2.44c-.6,1.71-4.2,3.16-4.2,3.16,0,0-4.07,1.83-1.19,4.29,2.88,2.45,1.6,3.41,1.6,3.41,0,0-3.07,2.39-5.63-1.04-2.57-3.43-2.04,5.25-2.04,5.25,0,0,1.02,8.77-5.23,10.83-3.4,1.12-6.25.44-8.11-.81,2.24-27.5,8.39-32.93,8.39-32.93l14.57,5.4Z"/>
        <path class="cls-8" d="m21.4988565,233.880652s-6.15,5.43-8.39,32.93c-1.57-1.04-2.43-2.49-2.32-3.61.25-2.44.25-15.35,3.28-21.2,3.03-5.86,4.9-9.06,4.9-9.06l2.53.94Z"/>
      </g>
      <g>
        <path class="cls-3" d="m21.4988565,233.880652s-6.15,5.43-8.39,32.93"/>
        <path class="cls-3" d="m13.1088565,266.810652c-1.57-1.04-2.43-2.49-2.32-3.61.25-2.44.25-15.35,3.28-21.2,3.03-5.86,4.9-9.06,4.9-9.06l2.53.94,14.57,5.4s2.45.73,1.84,2.44c-.6,1.71-4.2,3.16-4.2,3.16,0,0-4.07,1.83-1.19,4.29,2.88,2.45,1.6,3.41,1.6,3.41,0,0-3.07,2.39-5.63-1.04-2.57-3.43-2.04,5.25-2.04,5.25,0,0,1.02,8.77-5.23,10.83-3.4,1.12-6.25.44-8.11-.81Z"/>
      </g>
    </g>
  </g>
</svg>