<?xml version="1.0" encoding="UTF-8" standalone="no"?>
<!DOCTYPE svg PUBLIC "-//W3C//DTD SVG 1.1//EN" "http://www.w3.org/Graphics/SVG/1.1/DTD/svg11.dtd">
<svg xmlns="http://www.w3.org/2000/svg" version="1.1" viewBox="0.00 0.00 100.00 100.00">
<path fill="#ffffff" d="
  M 48.57 0.00
  L 51.82 0.00
  C 78.56 1.67 98.68 21.75 100.00 48.56
  L 100.00 51.56
  C 98.62 78.43 78.28 98.55 51.44 100.00
  L 48.19 100.00
  C 21.48 98.37 1.33 78.21 0.00 51.43
  L 0.00 48.19
  C 1.72 21.43 21.73 1.33 48.57 0.00
  Z
  M 73.28 49.41
  C 76.26 47.16 79.42 44.50 80.01 40.56
  C 81.17 32.72 79.00 25.71 70.66 23.05
  Q 68.57 22.38 61.38 23.47
  Q 60.86 23.55 60.47 23.20
  Q 53.52 16.82 44.34 19.21
  C 41.85 19.86 40.47 21.35 38.72 23.14
  Q 38.35 23.52 37.83 23.44
  C 33.53 22.79 28.99 22.26 25.12 24.50
  C 15.13 30.28 15.89 43.72 25.65 49.35
  A 0.95 0.93 -77.3 0 1 26.13 50.12
  Q 26.50 56.54 26.89 62.94
  C 27.20 68.09 30.27 70.03 35.34 70.02
  Q 50.16 69.98 64.98 70.00
  C 69.00 70.01 71.43 67.60 71.86 63.55
  Q 72.56 56.94 72.83 50.27
  Q 72.85 49.74 73.28 49.41
  Z
  M 69.81 75.19
  Q 58.14 74.69 28.10 75.11
  A 0.92 0.91 8.4 0 0 27.24 75.74
  Q 26.20 78.79 28.55 80.67
  A 1.46 1.45 64.2 0 0 29.46 80.99
  Q 48.92 81.02 68.37 80.98
  C 73.11 80.97 72.59 75.31 69.81 75.19
  Z"
/>
<path fill="#ffffff" d="
  M 34.17 52.01
  Q 33.84 51.99 33.80 51.67
  L 33.05 46.22
  A 0.85 0.85 0.0 0 0 32.78 45.70
  C 31.01 44.14 28.60 43.59 27.12 42.06
  Q 21.74 36.50 27.57 30.45
  Q 27.92 30.08 28.41 29.99
  Q 31.06 29.48 33.66 29.66
  C 36.39 29.85 37.85 31.89 41.34 30.72
  A 1.07 1.06 2.5 0 0 41.97 30.15
  C 44.42 24.65 49.90 23.15 54.70 26.75
  A 1.72 1.63 -83.9 0 1 55.26 27.48
  C 57.87 33.92 61.89 29.82 65.89 29.57
  C 75.25 28.98 77.45 40.81 69.44 43.44
  C 65.30 44.80 65.69 47.92 65.23 51.52
  Q 65.17 51.98 64.71 52.00
  Q 49.44 52.84 34.17 52.01
  Z"
/>
<rect fill="#ffffff" x="-15.87" y="-1.76" transform="translate(49.50,61.50) rotate(-0.1)" width="31.74" height="3.52" rx="1.25"/>
</svg>
