<?xml version="1.0" encoding="utf-8"?>
<!-- Generator: Adobe Illustrator 27.6.1, SVG Export Plug-In . SVG Version: 6.00 Build 0)  -->
<svg version="1.1" id="Calque_1" xmlns="http://www.w3.org/2000/svg" xmlns:xlink="http://www.w3.org/1999/xlink" x="0px" y="0px"
	 viewBox="0 0 32 32" style="enable-background:new 0 0 32 32;" xml:space="preserve">
<style type="text/css">
	.st0{fill:none;stroke:#000000;stroke-width:3;stroke-linecap:round;stroke-linejoin:round;stroke-miterlimit:9.1429;}
</style>
<path class="st0" d="M5.7,30.9h20.6 M30.7,7.8c-0.7-3.1-3.8-4.9-6.9-4.2c-0.9,0.2-1.8,0.7-2.5,1.3c-1.1-3-4.3-4.5-7.3-3.4
	c-1.6,0.6-2.8,1.8-3.4,3.4C8.3,2.8,4.7,3,2.6,5.3C2,6,1.5,6.8,1.3,7.8c-0.7,3.1,1.1,6.2,4.2,6.9c0.1,0,0.1,0,0.2,0v8.1
	c0,1.3,1,2.3,2.3,2.3h16c1.3,0,2.3-1,2.3-2.3v-8.1c3.1-0.6,5.1-3.7,4.5-6.8C30.7,7.9,30.7,7.8,30.7,7.8z M5.7,19.4h20.6"/>
</svg>
