<?xml version="1.0" encoding="UTF-8"?>
<svg id="Calque_2" data-name="Calque 2" xmlns="http://www.w3.org/2000/svg" viewBox="0 0 106.08 106.11">
  <g id="Calque_1-2" data-name="Calque 1">
    <g>
      <path d="m52.81,106.11C23.31,105.97-.03,82.52,0,53.04.03,23.54,23.77-.03,53.43,0c29.31.03,52.86,24.37,52.66,54.42-.19,28.46-24.28,51.83-53.27,51.68Zm-.1-5.04c26.34.14,48.2-20.99,48.43-46.83.24-26.78-21.07-48.96-47.3-49.24C27.78,4.71,5.69,26.04,5,51.11c-.82,29.94,23.68,50.59,47.71,49.96Z" fill="#FFFFFF"/>
      <path d="m66.06,89.82c-8.71,4.03-17.5,4.01-26.37,1.06.07-1.36.96-1.02,1.44-1.05q9.1-.39,9.26-9.34c.22-11.32.54-22.64.68-33.97.11-8.58-7.94-13.57-15.35-9.43-7.37,4.12-6.43,2.35-3.14,9.37,1.97,4.22,4.23,8.3,6.23,12.5,2.22,4.67,1.03,6.98-3.95,7.21-5.29.24-10.61.31-15.9.01-4.62-.26-5.88-2.69-3.92-7,1.79-3.93,3.89-7.72,5.66-11.66.56-1.25,2.05-3.43-1.1-3.58-2.84-.14-5.84-.47-6.18-3.72-.41-3.84,1.75-6.8,5.24-8.86.67,2.56-3.05,5.02-.34,6.98,2.7,1.95,5.39-.32,7.87-1.47,2.25-1.04,4.46-2.29,6.44-3.79,3.74-2.84,7.72-4.05,12.5-3.86,5.96.24,6.59-.94,5.17-6.73-.93-3.77-.28-6.61,2.74-11.45,2.59,3.8,4.08,7.49,2.41,12.07-1.35,3.69-.35,6.62,4.16,6.03,6.76-.88,11.77,2.5,16.91,5.9,1.11.73,2.27,1.43,3.49,1.94,2.37,1,4.9,3.24,7.39,1.29,2.53-1.99-.36-4.54-.41-7.43,2.73,1.77,4.45,3.76,5.27,6.51.99,3.34-.09,5.98-3.55,6.31-4.77.46-4.05,2.71-2.57,5.65,1.64,3.27,3.34,6.52,4.87,9.84,2.13,4.6.74,6.82-4.32,6.92-5.16.1-10.32.15-15.48.08-4.62-.07-6.16-2.51-4.16-6.85,2.57-5.58,5.4-11.05,8.11-16.57.47-.96,1.41-1.68.16-3-5.43-5.78-14.36-5.33-18.92.99-1.06,1.48-1.33,2.96-1.31,4.66.1,12.66.12,25.32.27,37.98.08,6.48.17,6.48,6.75,6.46,1.32,0,2.64,0,3.97,0ZM27.06,41.07c-3.24,6.41-5.84,11.54-8.42,16.68-1.23,2.46.07,3.44,2.3,3.48,4.15.09,8.3-.04,12.44,0,2.45.02,2.87-1.06,1.89-3.09-2.52-5.21-5.02-10.42-8.22-17.06Zm51.79.89c-2.9,5.58-5.35,10.45-7.95,15.25-1.53,2.82-.45,4.07,2.37,4.14,3.98.09,7.96-.12,11.94-.06,3.18.05,3.17-1.41,2.08-3.72-2.4-5.05-4.74-10.12-8.43-15.61Z" fill="#FFFFFF"/>
      <path d="m27.3,68.08c1.65,0,3.32-.15,4.94.04,1.51.18,3.82-.65,4.28,1.31.39,1.64-1.57,2.77-2.83,3.77-4.5,3.58-11.6,2.72-15.11-1.54-1.81-2.2-1.09-3.24,1.32-3.46,2.45-.22,4.93-.05,7.4-.05,0-.02,0-.05,0-.07Z" fill="#FFFFFF"/>
      <path d="m69.26,68.82h19.75c-1.85,4.83-5.62,6.58-9.72,6.71-4.28.14-7.97-1.8-10.02-6.71Z" fill="#FFFFFF"/>
    </g>
  </g>
</svg>