<?xml version="1.0" encoding="UTF-8"?>
<svg id="Calque_2" data-name="Calque 2" xmlns="http://www.w3.org/2000/svg" viewBox="0 0 106.07 106.33">
  <g id="Calque_1-2" data-name="Calque 1">
    <g>
      <path d="m106.07,53.11c.02,29.18-23.95,53.26-52.97,53.22C23.58,106.28-.03,82.5,0,52.84.03,23.46,24.12-.27,53.64,0c29.02.27,52.41,23.96,52.44,53.11ZM53.07,5.28C26.95,4.72,3.8,27.11,4.96,55.98c.98,24.4,23.36,45.82,48.71,45.28,26.52-.57,47.78-22.36,47.46-48.65-.32-26.18-22.09-47.61-48.05-47.32Z" fill="#FFFFFF"/>
      <path d="m31.9,22.45c3.32.35,6.47-.23,9.91.29,5.64.85,7.62,4.45,9.31,7.95,1.75,3.61.98,8.06.5,12.33-.63,5.63-3.77,9.43-6.87,13.5-.72.94-.72,1.85-.3,2.77,1.81,3.96,2.41,8.51,5.9,11.65,1.11,1,1.75,2.37,1.77,4,.06,4.99.19,9.99.3,14.98.06,2.75-1.26,4.41-3.93,3.31-4.02-1.66-8.54-1.24-12.38-3.4-1.35-.76-3.4-.82-3.08-3.22.17-1.29-.59-1.24-1.53-.98-3.95,1.1-5.28-2.04-7.22-4.37-2.26-2.72-.15-4.52,1.06-6.6,2.14-3.66,5.08-6.93,2.78-11.9-1.22-2.65-1.98-4.59-5.4-4.22-3.2.35-4.07-1.58-3.32-4.45.21-.79.85-1.85.56-2.34-3.2-5.4.7-10.16,1.31-15.18.22-1.8,1.16-3.28-.52-4.94-1.07-1.06-.74-2.88.35-3.6,3.38-2.25,6.21-5.71,10.78-5.57Z" fill="#FFFFFF"/>
      <path d="m71.99,83.48c2.6,5.55-1.59,5.76-4.48,7.39-4.44,2.51-3.98-2.1-5.47-3.64-2.3,1.37.77,4.33-2.27,5.45-4.76,1.76-6.86.37-6.59-4.81.2-3.82.51-7.63.52-11.45,0-2.9,1.01-4.9,3.37-6.72,2.27-1.75,2.04-5.05,3.4-7.47,1.57-2.8,1.23-4.92-1.11-7.76-5.15-6.24-6.91-14.24-5.13-21.84.78-3.37,2.43-8.19,8.65-9.54,4.26-.93,8.24-.75,12.21-.68,3.86.07,6.82,3.3,9.84,5.64.89.69,1.39,2.39.4,3.67-2.46,3.18-1.07,7.57.32,9.19,4.53,5.28-2.02,10.64,1.07,15.65.57.92-1.38,1.82-2.82,2.09-1.73.32-4.22-1.26-5.03,1.65-.91,3.25-3.24,6.38-.86,9.95,1.1,1.65,1.81,3.63,3.12,5.07,2.93,3.23.84,5.74-1.06,8.05-2.22,2.7-4.92,3.96-8.1.13Z" fill="#FFFFFF"/>
    </g>
  </g>
</svg>