<?xml version="1.0" encoding="UTF-8"?>
<svg id="Calque_2" data-name="Calque 2" xmlns="http://www.w3.org/2000/svg" viewBox="0 0 106.38 106.17">
  <g id="Calque_1-2" data-name="Calque 1">
    <g>
      <path d="m52.69,106.15C23.85,106.48-.26,82.46,0,52.35.26,23.09,25.2-.64,54.42.01c29.04.65,52.61,25.28,51.95,54.28-.67,29.1-25.01,52.62-53.68,51.86Zm48.35-53.27c-.12-26.24-21.73-47.94-47.6-47.79C26.91,5.24,4.83,27.05,5.06,52.87c.24,27.28,21.32,48.21,48.59,48.27,26.39.05,47.51-21.45,47.38-48.25Z" fill="#FFFFFF"/>
      <path d="m80.91,22.27c3.28,2.48,4.59,5.03,2.36,7.04-2.72,2.45-2.43,5.24-2.53,8.16-.3,8.48-.1,17.01-1.02,25.43-.65,5.98,2.78,8.76,6.54,11.84,1,.81,2.72,1.4,2.51,2.86-.25,1.78-2.15,1.27-3.32,1.31-6.6.21-6.13,5.67-6.95,9.7-1.77.45-2.38-.56-2.84-1.33-4.02-6.64-9.82-8.25-17.31-7.39-7.91.9-15.95.69-23.93.98-1.45.05-2.77-.06-3.96,1.4-3.21,3.93-5.87,2-8.96-1.64,5.5.81,6.55-2.48,7.03-6.12.28-2.13.07-4.32.22-6.48.52-7.83,3.31-14.06,11.25-17.23,5.58-2.23,5.61-3.23,1.5-7.48-.58-.6-1.2-1.15-1.78-1.75q-5.96-6.15-9.63,1.27c-.25-.22-.6-.4-.71-.67-2.88-6.87-5.74-13.75-9.07-21.75,8.02,3.28,15.19,6.22,22.5,9.21-.48.7-.58,1.04-.8,1.14q-6.46,2.88-1.48,7.98,6.76,6.93,11.39-1.23c3.39-6.01,8.95-8.1,15.37-8.63,2.32-.19,4.69.02,6.98-.32,3.32-.49,6.78-1.04,6.64-6.31Zm-30.69,56.8c0-.16,0-.31,0-.47,4.32,0,8.64.08,12.96-.04,1.88-.05,4.69.92,5.33-1.35.72-2.55,1.08-5.69-1.18-7.99-5-5.1-10.11-10.08-15.14-15.15-1.08-1.09-1.94-1.06-3.46-.53-10.49,3.68-15.32,11.27-16.36,22.03-.27,2.83.27,3.58,2.9,3.53,4.98-.09,9.97-.03,14.96-.03Zm28.33-29.41c.09,0,.19,0,.28,0,0-4.82.03-9.63-.02-14.45-.01-1.19.51-2.65-1.63-2.95-8.99-1.26-22.28,8.21-24.11,17.25-.19.93.06,1.62.68,2.24,5.41,5.39,10.56,11.07,16.33,16.04,4.1,3.54,8.26,1.27,8.45-4.19.16-4.64.03-9.3.03-13.95Z" fill="#FFFFFF"/>
    </g>
  </g>
</svg>