<?xml version="1.0" encoding="UTF-8"?>
<svg id="Calque_2" data-name="Calque 2" xmlns="http://www.w3.org/2000/svg" viewBox="0 0 106.24 106.08">
  <g id="Calque_1-2" data-name="Calque 1">
    <g>
      <path d="m52.82,106.08C23.48,105.96-.12,82.23,0,52.97.12,23.25,24.04-.18,54.06,0c28.55.18,52.34,24.57,52.17,53.49-.17,29.27-23.98,52.71-53.41,52.59ZM5.22,52.88c-.42,25.69,20.42,47.24,45.43,48.3,27,1.15,50.24-20.06,50.5-47.96.24-25.9-21.17-47.7-47.39-48.19C27.26,4.53,5.66,25.82,5.22,52.88Z" fill="#FFFFFF"/>
      <path d="m51.94,51.4c.92-1.75,3.43-3.72,1.17-5.49-3.6-2.82-4.63-9.8-11.44-7.65-1.86.59-3.55,1.69-5.32,2.56,1.95-4.66,4.27-5.93,9.2-5.98,5.04-.05,5.4,5.48,9.45,7.18,1.66-5.7.86-10.76-3.19-15.08-4.34-4.62-9.65-6.37-15.84-4.44-6.06,1.88-9.8,6.25-11.64,12.09-1.24,3.94,1.84,7.65,1.21,11.99-.26,1.78,2.88-1.36,4.82-1.29-.02,3.22-1.43,5.77-3.79,7.77-4.22,3.59-9.51,1.86-10.83-3.47-3.3-13.24,6.21-30.18,19.02-33.91,11-3.2,21.19,1.07,26.57,11.22,2.66,5.02,4.14,10.46,5.38,16.05,3.66-2.68,4.41-8.82,10.74-8.15,3.73.39,6.14,2.03,8.47,5.76-4.09-1.08-7.52-4.54-10.89-1.95-2.92,2.24-4.98,5.61-7.94,9.1,5.07.07,7.8-4.35,11.63-4.43,4.22-.09,7.31,2.63,8.77,7.53-6.33-8.34-12.24-1.03-18.24-.15-1.48.22-.6,1.93-.13,2.92.35.74.27,2.23,1.91,1.22.83-.51,1.87-.67,2.81-1.01,8.41-3.04,13.61.8,13.39,10.51-.89-1.56-1.46-2.7-2.15-3.77-3.66-5.67-8.64-6.51-13.82-2.44-1.5,1.18-.76,2.77-.9,4.16-.15,1.6,1.1,2.34,2.5,2.61,2.12.42,4.29.61,6.41,1.08,5.75,1.27,7.98,5.06,6.33,10.63-2.48,8.43-9.69,13.77-19.79,14.1,2.58-2.03,4.76-3.58,6.72-5.37.79-.72,2.34-1.31,1.99-2.6-.39-1.48-2.1-1.32-3.32-1.64-.76-.2-1.59-.16-2.91-.28,2.52-2.53,5.17-3.09,8.01-2.94,2.07.11,2.98-.97,3.59-2.74.63-1.86-.3-3.17-1.76-3.58-6.24-1.76-11.86-6.59-18.44-5.77-5.49.69-10.75,3.52-16.01,5.67-1.22.5-2.5,1.81-1.85,3.67.61,1.77,1.8,2.69,3.74,2.66,3.09-.04,5.83.97,8.79,3.37-2.75.24-5.17-.17-7.14,1.44,1.86,3.68,5.64,5.3,9.02,7.86-10.05.75-19.49-6.74-20.64-15.93-.54-4.26,1.73-7.28,6.58-8.5,1.93-.49,3.94-.67,5.92-.93,2.31-.31,3.47-1.36,3.52-3.91.04-2.41-.64-3.14-3.12-3.77-7.92-2-7.86-2.21-13.77,5.76-.32-8.43,4.53-12.26,12.33-9.73q5.25,1.7,5.03-2.12l-.12.09Z" fill="#FFFFFF"/>
      <path d="m52.05,51.31c-1.34-.65-2.8-1.12-3.99-1.97-4.79-3.41-9.21-3.36-13.46,1.6,1.38-6.41,6.58-8.96,11.61-6.21,1.6.88,3.24,1.67,4.85,2.54,1.86,1.01,2.08,2.42.89,4.12-.01,0,.1-.08.1-.08Z" fill="#FFFFFF"/>
    </g>
  </g>
</svg>