<?xml version="1.0" encoding="UTF-8"?>
<svg id="Calque_2" data-name="Calque 2" xmlns="http://www.w3.org/2000/svg" viewBox="0 0 106.09 106.14">
  <g id="Calque_1-2" data-name="Calque 1">
    <g>
      <path d="m52.82,106.14C22.39,105.81-.36,82.11,0,51.12.33,23,25.27-.45,54.37,0c29.01.46,52.01,24.51,51.72,54.1-.28,29.04-24.14,52.34-53.27,52.03Zm.41-5.07c26.43.05,47.72-21.02,47.79-47.31.08-26.68-21.22-48.67-47.2-48.73-26.66-.06-48.86,21.43-48.74,47.89.13,29.4,24.46,48.97,48.15,48.15Z" fill="#FFFFFF"/>
      <path d="m30.06,24.47c-.22,2.28-.03,4.02-1.6,5.48-4.17,3.88-3.85,9.5-5.31,14.43-.28.95.24,1.52,1.02,2.01,1.94,1.2,3.57,2.6,6.18,2.81,10.89.86,12.64-.2,15.38-10.71.61-2.33,1.01-4.87-2.34-5.45-1.72-.3-1.98-1.4-2.41-2.7-1.07-3.26.4-11.09,2.42-12.33,3.92-2.43,11.45-.61,14.72,4.01,2.58,3.65,4.51,7.74,6.8,11.6,1.78,3,3.6,5.98,5.54,8.88,2.01,3.01,4.88,5.01,8.28,6.11,3.52,1.14,7.98-1.03,8.94-4.44,1.04-3.7-1.6-5.42-4.3-6.92-.65-.36-1.47-.43-3.14-.88,9.45-1.07,13.11,3.84,9.72,11.62-.69,1.58-1.31,2.54,1.23,1.79.73-.22.73.71.45.96-3.08,2.83-1.77,7.28-3.9,10.45-.82,1.22-1.92,1.58-3.29,1.84-6.47,1.19-11.75-1.4-16.44-5.36-3.15-2.66-5.9-5.79-8.26-9.26.05,3.16,2.04,5.3,4.13,7.11,3.97,3.43,6.41,7.16,4.44,12.62-2.03,5.62-7.15,5.03-11.55,5.9-.48.1-.98.11-1.53.18,5.29,4.31,10.99,5.09,28.59,3.85-1.48,3.31-4.1,5.29-6.69,7.2-13.84,10.23-33.52,10.4-47.64.49-6.87-4.82-7.11-8.7-.93-14.24,5.3-4.74,11.67-7.6,18.09-10.37,1.72-.74,3.6-1.36,3.85-3.47.28-2.3-1.93-3.31-3.07-4.87-.54-.75-1.54-1.02-2.13-.21-2.61,3.59-5.91,1.83-9.08,1.33-3.38-.52-6.62-1.59-10.12-1.68-2.97-.08-4.29-1.74-5.31-5.15-1.3-4.31-3.54-8.19-1.44-12.64,2.14-4.53,3.97-9.59,10.72-9.97Z" fill="#FFFFFF"/>
    </g>
  </g>
</svg>