<?xml version="1.0" encoding="UTF-8"?>
<svg id="Calque_2" data-name="Calque 2" xmlns="http://www.w3.org/2000/svg" viewBox="0 0 106.52 106.39">
  <g id="Calque_1-2" data-name="Calque 1">
    <g>
      <path d="m106.52,53.11c.14,28.76-24.28,53.29-53.03,53.28C24.39,106.38.19,82.49,0,53.59-.19,24.26,23.47-.08,53.02,0c29.94.08,52.87,23.05,53.5,53.11Zm-5.49.12c0-26.74-21.25-48.24-47.54-48.09C26.51,5.31,5.33,26.38,5.13,53.26c-.2,26.14,22.1,48.11,48.62,47.92,26.22-.19,47.27-21.54,47.28-47.94Z"/>
      <path d="m34.75,72.74c-3.08,5.29-6.56,6.34-11.36,3.85-5.2-2.7-7.26-7.59-8.78-12.76-2.53-8.64-2.67-17.33.18-25.95,2.42-7.35,7.09-12.17,14.95-13.73,7.2-1.43,12.12,2.1,16.53,6.97,5.83,6.44,7.95,6.53,13.52.12,5.08-5.85,10.96-9.02,18.92-6.61,8.63,2.6,12.28,9.37,13.86,17.31,1.64,8.24,1.23,16.59-1.85,24.56-1.63,4.22-3.78,8.17-8.16,10.29-4.64,2.24-8.28,1.07-10.56-3.43,6.9.64,10.3-2.98,10.82-11.54.86-14.18-1.59-17.96-11.97-18.42.18-3.18,3.09-4.72,5.34-7.85-4.5,1.51-6.16,4.27-7.78,7.13-1.13,1.99.41,2.75,1.58,3.55,3.74,2.54,5.84,6.31,7.78,10.2.4.81,1.42,1.77.43,2.63-.51.44-1.58.39-2.37.3-.98-.12-2.01-.34-2.86-.81-3.07-1.68-4.34-.63-4.76,2.64-.45,3.53-2.02,6.63-4.33,9.38-2.93,3.49-3.13,7.94-4.06,12.12-.8,3.6-1.91,6.7-6.51,6.82-4.54.12-6.61-2.6-6.74-6.38-.3-9.1-7.94-15.23-9.16-23.92-.4-2.85-2.56-.87-3.97-.67-1.74.24-3.8,1.95-5.13.27-1.3-1.64.7-3.32,1.41-4.91,1.17-2.61,2.57-5.38,5.17-6.56,5.29-2.39,3.2-5.18.78-7.97-1.24-1.42-2.94-2.44-4.67-3.39,1.38,2.78,3.89,4.79,4.75,7.88-8.36-.77-11.1,1.3-12.64,9.52-.92,4.87-.09,9.65,1.39,14.25,1.72,5.34,4.28,6.59,10.26,5.13Z"/>
    </g>
  </g>
</svg>