<?xml version="1.0" encoding="UTF-8"?>
<svg id="Calque_2" data-name="Calque 2" xmlns="http://www.w3.org/2000/svg" viewBox="0 0 106.29 106.26">
  <g id="Calque_1-2" data-name="Calque 1">
    <g>
      <path d="m0,53.27C-.2,23.67,23.62.08,53.77,0c28.28-.07,52.32,24,52.51,52.57.19,29.11-23.58,53.36-52.61,53.69C24.41,106.58.2,82.68,0,53.27Zm5.28-.31c-.05,26.96,20.86,47.85,48.1,48.08,26.25.22,47.71-21.39,47.78-48.09.06-26.14-21.39-47.68-47.55-47.73-27.27-.06-48.28,20.7-48.33,47.75Z"/>
      <path d="m68.69,73.34c-7.92,5.56-16.84,3.07-25.39,2.91-3.93-.08-5.5-5.09-9.34-6.07l.15.09c.42-1.22.07-2.24-1.22-1.34-6.24,4.4-8,5.06-15.69,4.73,4.62-2.48,8.82-4.2,12.23-7.24,1.28-1.14,2.1-1.5,1.24-3.73-1.9-4.96,3.52-11.74,9.11-12.16,3.61-.27,8.5.69,5.83-5.94-.5-1.24.54-2.21,2-2.12,1.74.1,2.19,1.21,1.96,2.76-.19,1.34-2.01,3-.04,3.92,2.09.98,4.63.85,6.83.19,1.83-.55.8-2.16.4-3.37-.39-1.15-.67-2.4.47-3.15.56-.37,1.68-.36,2.31-.04,1.27.64,1.19,1.91.68,3.04-1.86,4.09.77,4.93,3.73,4.52,5.91-.82,8.79,3.3,11.58,6.99,1.98,2.62-.29,5.55-1.5,8.13-1.4,2.97-4.53,4.78-5.51,8.06l.17-.18Z"/>
      <path d="m39.39,17.62c-4.42,4.41-7.86,8.57-10.02,13.72-1.4,3.34-.7,4.71,2.91,4.19,2.59-.37,5.14-.96,8.44-1.59-1.61,3.74-3.84,6.51-7.26,7.72-4.37,1.54-4.08,3.69-1.23,6.2,5.1,4.5-1.31,5.28-2.46,7.62-1.56,3.18-3.4,1.16-5.02-.32-6.46-5.88-9.09-12.97-6.45-21.5,2.8-9.01,10.82-15.25,21.09-16.04Z"/>
      <path d="m66.5,17.65c10.49.62,18.83,7.26,21.66,16.39,2.31,7.47-.68,15.86-7.09,21.5-4.25,3.74-5.18-1.04-7.33-2.44-2.4-1.56-2.52-3.13.1-5.17,3.04-2.36,3.63-4.72-1.16-6.42-4.06-1.45-4.78-2.81-6.85-7.45,2.67.5,5.21,1.11,7.79,1.44,3.22.42,4.71-.35,3.2-4.12-2.09-5.22-5.43-9.42-10.32-13.73Z"/>
      <path d="m63.88,93.59c-.51-5.28.25-9.57-1.16-13.71-.85-2.49,1.75-2.59,3-3.03,2.34-.82,1.66,1.37,1.71,2.43.21,4.67-.2,9.23-3.55,14.31Z"/>
      <path d="m93.77,59.4c-4.45,4.81-9.52,5.37-14.87,5.11-1.39-.07-2.29-.58-1.66-2.15.44-1.08.13-3.17,2.12-2.62,4.6,1.28,9.13.33,14.4-.35Z"/>
      <path d="m12.13,59.39c5.39.7,9.89,1.4,14.43.39,2.3-.51,2.65,1.8,2.9,3.17.39,2.1-1.49,1.54-2.71,1.62-5.22.31-10.01-.63-14.61-5.18Z"/>
      <path d="m42.11,92.69c-2.78-4.08-3.83-8.48-3.43-13.19.12-1.38-.06-3.45,2.19-2.94,1.48.34,3.21,1.27,2.56,3.49-1.21,4.12-1.18,8.36-1.32,12.64Z"/>
      <path d="m68.52,73.52c2.13-.2,2.87-2.88,5.13-2.86l-.18-.19c.63,5.38,4.3,10.01,3.74,17.23-2.5-6.02-6.67-9.41-8.52-14.37,0,0-.17.18-.17.18Z"/>
      <path d="m33.97,70.18c3.27,2.65,3.73,5.2.52,8.51-2.12,2.18-3.47,5.11-5.53,7.55.78-5.65,1.33-11.32,5.18-15.95-.02-.01-.17-.1-.17-.1Z"/>
      <path d="m73.65,70.66c.3-4.12,1.52-5.5,5.38-2.43,2.62,2.08,5.85,3.4,9.34,5.36-5.81,1.16-10.23-1.66-14.91-3.12,0,0,.18.19.18.19Z"/>
    </g>
  </g>
</svg>