<?xml version="1.0" encoding="UTF-8"?>
<svg id="Calque_2" data-name="Calque 2" xmlns="http://www.w3.org/2000/svg" viewBox="0 0 106.05 106.31">
  <g id="Calque_1-2" data-name="Calque 1">
    <g>
      <path d="m106.05,53.23c-.03,29.22-23.33,52.83-52.38,53.08C24.13,106.56-.06,82.45,0,52.85.06,23.86,24.04.08,53.28,0c29.02-.07,52.79,23.9,52.77,53.23ZM52.59,5.29C25.06,6.26,4.13,27.97,5.01,54.63c.87,26.24,23.74,47.9,49.42,46.67,27.82-1.34,48.61-23.74,46.48-52.22-1.82-24.3-22.32-44.14-48.33-43.79Z"/>
      <path d="m66.21,28.35c-.56-2.42-.79-4.06-1.32-5.61-2.29-6.64-11.9-8.47-16.41-3.08-1.93,2.3-1.55,3.95,1.78,4.24,1.04.09,2.57-.49,2.69,1.32.09,1.4-1.03,2.18-2.16,2.39-4.2.81-3.97,3.29-3.15,6.65,1.44,5.94,2.49,11.93,1.77,18.19-.84,7.3,5.05,10.18,10.45,13.76-6.11,2.7-11.64,5.59-15.09,11.16-.91,1.47-2.13,1.19-3.49.73-9.66-3.3-16.41-9.83-20.81-18.87-.78-1.6-2.04-4.15,1.86-3.8-.69-2.04-2.98-1.81-4.29-3.72-1.22,3.88-.1,6.84,1.07,9.66.82,1.97.65,3.51-.68,5-.86.97-1.55,2.58-2.96,2.43-1.72-.18-1.27-2.04-1.62-3.24-1.5-5.13-2.45-10.34-1.82-15.71.48-4.04,1.89-7.17,6.92-6.15,3.47.7,4.82-2.38,6.91-4.01,2.06-1.61,3.99-3.48,5.15-6.17-.39-.26-.73-.63-1.12-.72-2.33-.5-5.1-1.12-5.56-3.55-.54-2.87,2.43-4.18,4.48-5.32,5.73-3.17,11.48-6.16,16.97-9.85,7.9-5.3,17.59-2.59,21.1,4.64,1.47,3.02,1.71,6-.66,9.63Z"/>
      <path d="m74.38,30.77c4.76,2.44,6.81,5.53,9.21,8.26.72.82,1.14,2.42,2.59,1.73,1.24-.59.88-2.12.69-3.15-.41-2.22-1.12-4.39-1.42-6.66,6.87,8.4,10.86,17.7,8.21,28.77-1.58,6.63-5.52,11.24-12.61,12.51-1.47.26-2.9.75-4.37.92-3.48.4-3.97,1.71-2.54,5.01,3.8,8.75-.39,15.55-9.95,16.5-4.79.48-9.61.72-13.93-2.24-5.66-3.88-6.81-9.92-2.78-15.49,3.93-5.44,9.7-7.71,15.93-9.27,2.87-.72,5.72-1.63,8.46-2.76,3.93-1.62,6.29-4.61,7.27-8.84,1.98-8.62.98-16.71-4.76-25.27Zm-5.32,44.04c-5.1.17-7.48,2.92-9.61,5.98-.62.89-.46,1.87.32,2.69.99,1.04,2.16,1.5,3.56,1.03.98-.33,2.2-1.43,1.76-2.04-3.16-4.35,1.28-5.25,3.98-7.66Z"/>
    </g>
  </g>
</svg>