<?xml version="1.0" encoding="UTF-8"?>
<svg id="Calque_2" data-name="Calque 2" xmlns="http://www.w3.org/2000/svg" viewBox="0 0 106.51 106.15">
  <g id="Calque_1-2" data-name="Calque 1">
    <g>
      <path d="m52.96,106.15C23.44,105.97-.28,81.97,0,52.58.28,23.34,24.52-.23,54.05,0c28.93.23,52.7,24.55,52.46,53.65-.25,29.16-24.23,52.67-53.56,52.49Zm48.13-53.19c-.35-26.45-21.74-48.01-47.51-47.89-26.71.12-48.89,22.16-48.42,48.19.52,28.56,24.13,48.89,49.97,47.95,25.38-.92,46.31-22.38,45.97-48.25Z"/>
      <path d="m40.72,83.9c-8.14,3.88-13.17,2.29-18.19-5.77,8.22,1.37,11.96-.15,14.47-5.86,2.2-5.03,1.23-6.91-4.11-7.38-3.44-.3-6.59-1.75-10.13-2.03-2.32-.18-3.06-3.68-2.63-6.27.27-1.58,1.17-3.06,1.99-5.09,3.01,2.95,6.26,4.53,10.11,4.56,1.56.01,2.36-1.13,3.17-2.16,2.59-3.28,1.71-6.19-1.17-8.73-4.54-4.01-8.68-3.86-12.78.48-3.05-3.68-3.27-7.89-2.21-12.18,1.11-4.5,5.35-5.88,11.58-4.06,6.74,1.97,10.75.17,13.53-6.06,2.71-6.09,7.56-9.08,14.43-8.24,13.3,1.63,24.14,7.21,30.17,19.94.28.59.58,1.19.76,1.82.07.26-.16.61-.27.99-2.48-1.04-2.89-4.51-6.44-5.04,2.67,4.53,5.37,8.59,7.08,13.18,2.6,6.94,4.01,14.45.45,20.77-3.35,5.96-6.04,12.83-13.38,18.27,2.55-6.88,4.36-12.61-1.87-17.2,4.02,17.82-2.99,25.5-23.15,24.97,5.95-3.55,11.45-7.29,11.41-14.22-.03-5.52-3.98-9.57-8.65-13.85.79,3.72,2.89,5.64,4.4,7.88,3.54,5.25,3.23,8.79-1.21,13.33-6,6.14-13.98,7.27-21.83,3.04.12-2.84,4.6-2.08,4.35-5.21,5.24-2.25,7.81-7.67,6.58-15.95-.79,6.95-3.63,11.5-6.46,16.06Zm21.52-43.98c5.78,2.35,11.67,4.41,17.2,7.37-4.72-4.78-10.34-7.48-17.2-7.37Z"/>
    </g>
  </g>
</svg>