<?xml version="1.0" encoding="UTF-8"?>
<svg id="Calque_2" data-name="Calque 2" xmlns="http://www.w3.org/2000/svg" viewBox="0 0 106.23 106.13">
  <g id="Calque_1-2" data-name="Calque 1">
    <g>
      <path d="m52.69,106.09C23.78,106.52-.84,81.86.02,51.95.88,22.29,25.54-1.09,54.61.04c29.23,1.13,52.71,25.98,51.58,54.58-1.15,29.08-25.49,52.5-53.51,51.47Zm.02-100.72C24.97,6.03,4.51,27.18,5.22,54.46c.71,27.06,22.15,47.28,49.41,46.6,26.14-.66,47.18-22.78,46.45-48.84-.75-26.64-22.25-47.46-48.38-46.84Z"/>
      <path d="m90.17,49.55c-7.6-11.69-9.53-10.75-21.64-2.8.14-5.44,2.97-9.28,6.77-12.3,3.03-2.4,1.97-3.44-.73-4.69-6.74-3.11-13.54-3.38-20.16-.01-2.63,1.34-7.19,1.89-3.87,7.27,1.73,2.81-1.88,5.93-5.31,4.3-3.12-1.49-4.84-.37-6.95,1.4-3.31,2.78-6.9,5.16-10.63,7.39-2.95,1.76-4.22.69-4.96-2.07-1.64-6.06-2.18-12.15.43-18.05.85-1.92.94-3.29-.48-4.91-1.86-2.13-1.22-3.7,1.22-5.12,10.49-6.1,21.83-9.87,33.82-7.9,13.83,2.28,32.45,16.37,32.48,37.48Z"/>
      <path d="m15.9,57.88q7.48,10.5,21.54,2.98c-.08,5.44-3.01,9.24-6.72,12.19-2.97,2.36-1.68,3.1.61,4.34,9.02,4.9,19.27,3.07,27.7-5.41-2.73.54-4.22-.15-3.9-2.79.29-2.41,2.01-4.28,3.95-3.28,5.91,3.04,8.69-1.9,12.51-4.23,1.56-.95,3.01-2.08,4.58-3.01,5.85-3.48,7.18-3.02,8.06,3.87.65,5.06,1.13,10.34-1.35,15.18-.87,1.69-.94,2.92.39,4.45,1.78,2.04,1.34,3.7-1.13,5.19-10.9,6.56-22.83,10.5-35.19,7.64-13.91-3.21-30.65-15.69-31.03-37.12Z"/>
    </g>
  </g>
</svg>