<?xml version="1.0" encoding="UTF-8"?>
<svg id="Calque_2" data-name="Calque 2" xmlns="http://www.w3.org/2000/svg" viewBox="0 0 106.09 106.29">
  <g id="Calque_1-2" data-name="Calque 1">
    <g>
      <path d="m106.09,53.41c-.13,29.14-23.69,52.86-52.54,52.88C23.35,106.32-.18,82.38,0,51.81.17,23.4,24.72-.31,53.67,0c29.33.32,52.55,23.97,52.42,53.41Zm-5.08-.02c0-26.66-21.34-48.34-47.47-48.24-27.04.1-48.99,21.64-48.39,48.52.59,26.29,20.18,46.96,48.38,47.62,25.48.6,47.49-21.77,47.49-47.9Z"/>
      <path d="m26.95,50.37c-1.45-2.51-3.98-3.3-5.93-4.78-7.99-6.06-8.26-15.62-.42-21.9,6.2-4.97,13.59-6.38,21.39-6.95-.6,1.78-2.15,1.73-3.28,2.31-2.65,1.37-5.53,2.43-7.91,4.17-3.25,2.37-7.52,4.59-5.65,9.87,1,2.82,9.26,5.81,12.93,4.56,4.61-1.57,8.91-2.31,13.3.65,1.35.91,3.29.65,4.74-.41,3.51-2.56,7.25-2.04,10.91-.7,5.15,1.89,9.44-.14,13.44-2.87,2.61-1.78,1.92-4.41.3-6.6-2.32-3.15-5.53-5.25-9-6.95-2.35-1.15-4.78-2.15-7.55-3.38,8.46-1.32,20.18,3.35,24.85,9.64,4.36,5.87,3.66,12.62-1.87,17.32-1.39,1.18-2.91,2.24-4.46,3.19-3.1,1.9-2.47,3.23.3,4.91,2.26,1.36,6.45,2.39,5.54,5.3-1.01,3.27-5.23,5.6-8.58,4.68-7.01-1.91-8.38,2.01-10.36,7.2-2.25,5.89-5.34,11.32-4.8,18.02.28,3.56-1.61,6.19-5.56,7.17-3.82.94-7.57,1.02-11.34.21-3.89-.84-6.4-3.24-5.97-7.36.95-9.15-4.97-15.96-7.68-23.86-.73-2.13-2.29-1.38-3.7-1.25-4.09.37-7.92,0-11.25-2.87-2.02-1.74-2.31-3.13.05-4.63,2.49-1.58,5.01-3.12,7.54-4.69Z"/>
    </g>
  </g>
</svg>