<?xml version="1.0" encoding="UTF-8"?>
<svg id="Calque_2" data-name="Calque 2" xmlns="http://www.w3.org/2000/svg" viewBox="0 0 106.05 105.9">
  <g id="Calque_1-2" data-name="Calque 1">
    <g>
      <path d="m52.91,0c29.08-.12,53.03,23.41,53.14,52.22.11,29.38-23.24,53.61-51.73,53.68C23.82,105.98.2,83.13,0,53.35-.19,23.68,23.17.12,52.91,0ZM5.08,52.54c-.12,26.82,20.8,48.29,47.24,48.47,26.61.19,48.69-21.37,48.8-47.65.11-26.53-21.24-48.31-47.45-48.42-27.15-.12-48.47,20.77-48.59,47.6Z"/>
      <path d="m50.01,90.08c-4.99,2.13-9.14,4.21-12.88-.59-.38-.48-1.88-.16-2.85-.11-8.08.43-16.09-6.07-17.3-14.15-.38-2.51-.69-5.26,2.49-6.23,2.94-.89,4.66,1.01,5.93,3.37.87,1.61,1.66,3.26,2.53,4.86.81,1.49,1.76,3.13,3.76,2.61,2.09-.54,3.21-2.18,3.54-4.36.57-3.7-1.39-6.49-3.47-9.05-8.13-9.98-4.82-26.4,2.9-34.45,2.46-2.57,5.32-4.56,8.96-5,2.75-.33,5.05-1.2,6.76-3.61.88-1.24,2.09-2.95,4.09-1.76,2.08,1.23.8,2.78.26,4.33-.89,2.56-2.35,4.77-3.88,6.94-1.68,2.37-2.77,6.59-6.51,1.31-1.39-1.96-3.5.54-4.64,2.07-5.27,7.08-3.16,20.63,4.09,25.69,2.85,1.99,6.04,3.48,9.03,5.28,6.24,3.77,9.53,10.84,8.39,17.88-.8,4.94-4.77,8.55-9.43,8.83-2.74.16-3.03-1.04-1.78-3.84Z"/>
      <path d="m77.48,57.98c-4.05-1.57-8.24-.2-12.45.51-2.88.49-5.69.09-8.38-.75-6.1-1.9-7.92-8.73-3.15-12.95,3.2-2.83,3.49-4.62-.34-6.54-2.04-1.02-1.97-2.26-1.02-3.98,1.03-1.88,1.86-3.87,2.85-5.77,1.24-2.37,2.55-4.17,5.72-2.24,2.43,1.48,4.15.49,4.37-2.49.26-3.52,1.9-5.97,5.41-6.88,3.6-.93,6.45.34,8.91,3.01,1.72,1.87,3.19,3.91,4.08,6.22,1.57,4.05,3.71,7.71,6.09,11.32,2.87,4.36,4.11,9.12,1.42,14.09-2.86,5.28-8.04,5.87-13.54,6.44Zm-10.34-3.23c6.73-3.15,15.36-19.49,13.73-26.16-3.03,9.98-7.73,18.41-13.73,26.16Zm-3.58-.61c-2.36-1.9-3.65-3.07-5.07-4.05-.87-.6-1.27-3.02-2.89-1.24-1.11,1.22-.75,2.78.55,3.94,1.7,1.52,3.67,1.66,7.42,1.34Zm9.54-29.88c1.15-.09,2.75.24,2.83-1.25.1-1.86-1.73-2.24-3.13-2.48-1.45-.26-2.9.71-2.95,1.98-.1,2.24,2.16,1.17,3.26,1.75Z"/>
    </g>
  </g>
</svg>